<svg xmlns="http://www.w3.org/2000/svg" version="1.0" viewBox="0 0 210 210" opacity=".33">
  <path d="M 144.40901,105.07833 A 39.424393,39.424393 0 0 1 104.98462,144.50272 39.424393,39.424393 0 0 1 65.560226,105.07833 39.424393,39.424393 0 0 1 104.98462,65.653938 39.424393,39.424393 0 0 1 144.40901,105.07833 Z M 91.847105,6.5324177 c -3.439588,0 -6.614583,3.1750029 -6.614583,6.6145833 v 13.229166 c -1.10308,4.272118 -7.38828,4.513402 -11.275279,6.716387 -4.248661,1.35696 -7.088317,4.543456 -11.23084,2.611725 L 53.835474,26.365832 C 51.080743,23.411302 47.542431,22.75377 44.469121,25.6651 L 25.26099,43.860889 c -2.497076,2.365465 -2.618668,6.854301 -0.253214,9.351367 l 9.098153,9.604065 c 3.034363,3.203191 -0.141632,7.17695 -1.448491,11.449428 -2.202981,3.887013 -2.00915,10.023375 -6.281271,11.126454 H 13.147001 c -3.4395786,0 -6.6145833,3.174992 -6.6145833,6.614584 v 26.458333 c 0,4.23333 2.9100481,6.34995 6.9494463,6.31796 l 12.894303,0.032 c 4.251272,1.6789 4.526938,7.2008 6.463688,11.21844 1.306859,4.27247 3.585681,7.58935 1.448491,11.44943 l -9.098153,9.60406 c -2.36545,2.49707 -2.243865,6.98591 0.253215,9.35137 l 19.20813,18.19579 c 3.07331,2.91133 6.611622,2.25379 9.366353,-0.70074 l 8.890413,-9.33844 c 4.142517,-1.93174 6.742916,1.0248 10.991577,2.38176 3.886999,2.20298 10.171684,2.44479 11.274763,6.7169 v 13.22917 c 0,3.43958 3.175003,6.61458 6.614584,6.61458 h 26.458332 c 4.23333,0 6.34995,-2.91056 6.31796,-6.94996 l 0.032,-12.89379 c 1.6789,-4.25126 7.2008,-4.52745 11.21844,-6.4642 4.24866,-1.35696 7.08883,-4.54346 11.23135,-2.61173 l 8.89093,9.33897 c 2.75473,2.95453 6.29253,3.61154 9.36584,0.70021 l 19.20865,-18.19579 c 2.49708,-2.36545 2.61815,-6.85378 0.25269,-9.35085 l -9.09763,-9.60406 c -2.13719,-3.86008 0.14163,-7.17695 1.44849,-11.44943 1.93675,-4.01764 2.21242,-9.54005 6.46369,-11.21895 l 12.89378,-0.032 c 4.0394,0.032 6.94997,-2.08463 6.94997,-6.31796 V 92.029522 c 0,-3.439586 -3.17501,-6.61458 -6.61459,-6.614583 h -13.22916 c -4.27212,-1.103077 -4.51393,-7.387751 -6.71691,-11.274764 -1.30686,-4.272481 -3.27458,-7.716472 -1.13739,-11.576552 l 9.09763,-9.604065 c 2.36545,-2.497072 2.24387,-6.985908 -0.25321,-9.351367 L 165.362,25.412402 c -3.07331,-2.91133 -6.61163,-2.253797 -9.36636,0.700732 l -8.89041,9.338447 c -4.14252,1.931731 -6.98269,-1.254765 -11.23136,-2.611726 -4.01764,-1.936752 -9.53953,-2.212419 -11.21843,-6.463688 l -0.032,-12.894303 c 0.032,-4.0394001 -2.08463,-6.9494463 -6.31796,-6.9494463 z" />
</svg>