<?xml version="1.0" encoding="UTF-8" standalone="no"?>
<!-- Created with Inkscape (http://www.inkscape.org/) -->

<svg
   width="209.52303mm"
   height="229.12819mm"
   viewBox="0 0 209.52304 229.12818"
   version="1.1"
   id="svg5"
   inkscape:version="1.1 (c68e22c387, 2021-05-23)"
   sodipodi:docname="bg-spider_clan.svg"
   xmlns:inkscape="http://www.inkscape.org/namespaces/inkscape"
   xmlns:sodipodi="http://sodipodi.sourceforge.net/DTD/sodipodi-0.dtd"
   xmlns="http://www.w3.org/2000/svg"
   xmlns:svg="http://www.w3.org/2000/svg">
  <sodipodi:namedview
     id="namedview7"
     pagecolor="#505050"
     bordercolor="#ffffff"
     borderopacity="1"
     inkscape:pageshadow="0"
     inkscape:pageopacity="0"
     inkscape:pagecheckerboard="1"
     inkscape:document-units="px"
     showgrid="false"
     inkscape:zoom="0.74118967"
     inkscape:cx="337.97017"
     inkscape:cy="480.9835"
     inkscape:window-width="1920"
     inkscape:window-height="1017"
     inkscape:window-x="1352"
     inkscape:window-y="32"
     inkscape:window-maximized="1"
     inkscape:current-layer="g421"
     fit-margin-top="0"
     fit-margin-left="0"
     fit-margin-right="0"
     fit-margin-bottom="0"
     units="mm" />
  <defs
     id="defs2" />
  <g
     inkscape:label="Слой 1"
     inkscape:groupmode="layer"
     id="layer1"
     transform="translate(1313.5475,-48.586512)"
     style="display:inline">
    <g
       id="g421"
       transform="matrix(0.12745909,0,0,0.12745909,-1198.018,152.52123)"
       style="display:inline;opacity:1;mix-blend-mode:normal;fill:#000000;fill-opacity:0.5">
      <path
         style="display:none;fill:#000000;fill-opacity:0.5;stroke-width:0.894366"
         d="m -384.47515,981.55284 c -8.60814,-1.56585 -23.55084,-7.84931 -28.6868,-12.06285 -1.69494,-1.39056 -1.55424,-1.43573 2.6831,-0.8619 16.01883,2.16928 19.22888,2.01474 19.22888,-0.92612 0,-3.4408 -6.39535,-6.98383 -24.89009,-13.78942 -61.66365,-22.69034 -95.42689,-43.96124 -126.27617,-79.55397 -42.94682,-49.55049 -65.26022,-110.07404 -65.26838,-177.03622 -0.003,-25.643 2.44751,-42.20962 9.75196,-65.92428 4.01232,-13.02644 5.15653,-18.75208 3.9023,-19.52723 -0.46545,-0.28772 -5.19212,3.09486 -10.5037,7.5167 -5.31157,4.42184 -9.8031,7.89403 -9.98119,7.71597 -0.66964,-0.66971 2.63663,-17.44855 4.79325,-24.32516 5.4856,-17.4913 13.95042,-27.67294 36.25314,-43.60572 5.34253,-3.81671 9.44633,-8.01423 17.83205,-18.23935 22.26699,-27.15117 43.82219,-51.35799 58.10454,-65.25224 25.57845,-24.88342 63.63002,-54.35019 96.44426,-74.68558 29.33571,-18.17969 34.48119,-23.19869 48.9485,-47.74529 19.0362,-32.29861 18.47874,-31.79857 27.7434,-24.88449 1.59868,1.193 2.91617,1.84687 2.92777,1.4529 0.0262,-0.88963 -15.40168,-56.02453 -15.82193,-56.54318 -0.16764,-0.20686 -1.23469,0.49745 -2.37123,1.56514 -2.85357,2.68078 -4.79161,2.4342 -7.58717,-0.96538 -15.7287,-19.12709 -18.6127,-19.93569 -68.42141,-19.18379 -54.38157,0.82094 -85.58927,5.39616 -137.90738,20.21813 -15.78532,4.47201 -76.26228,23.82082 -77.21696,24.70445 -0.16581,0.15348 -0.62967,2.92547 -1.03079,6.15986 -1.29949,10.47831 -6.11253,16.23498 -21.59937,25.83395 -5.49624,3.40664 -8.45649,4.78486 -8.61954,4.01302 -0.1366,-0.64654 0.56771,-3.5475 1.56514,-6.4465 1.98311,-5.7641 2.33075,-9.46284 0.88939,-9.46284 -3.20303,0 -21.55546,11.84185 -40.21675,25.94976 -55.79595,42.18171 -86.62905,81.00499 -112.79162,142.0208 -19.00684,44.3273 -30.56042,89.01413 -36.23223,140.13861 -2.02358,18.24015 -2.36791,73.01686 -0.50977,81.09505 1.46595,6.37298 3.07548,7.96943 5.02899,4.98806 1.34338,-2.05025 6.52703,-21.27295 8.65966,-32.11294 0.56562,-2.87494 1.32143,-5.22721 1.6796,-5.22721 0.35815,0 2.50994,4.52773 4.78175,10.06162 13.27616,32.33939 15.95985,43.07974 17.59871,70.43134 1.53865,25.67922 6.19943,40.70896 19.27564,62.15846 22.98464,37.70281 59.20262,74.8064 94.48722,96.79761 8.80997,5.49079 41.74226,22.9244 46.54787,24.6414 0.61133,0.21841 0.8526,0.67757 0.53614,1.02039 -0.31645,0.34281 -7.35958,-1.04981 -15.65141,-3.0946 -38.24532,-9.43154 -62.40056,-19.83579 -91.99154,-39.62293 -38.21025,-25.55079 -80.86625,-62.5696 -101.15997,-87.79117 -25.28626,-31.42651 -46.80219,-76.20913 -46.83733,-97.48592 -0.0106,-6.45142 1.29075,-12.96831 2.58974,-12.96831 0.40548,0 3.58607,4.72896 7.06798,10.5088 7.03129,11.67175 10.80915,16.70372 10.86023,14.46557 0.0177,-0.77524 -0.64067,-5.80605 -1.46301,-11.17958 -1.84471,-12.05409 -2.12184,-66.40812 -0.44883,-88.02719 3.61947,-46.77169 11.04391,-86.28184 23.10856,-122.97536 19.8668,-60.42303 49.89049,-106.87587 95.81837,-148.25069 15.71159,-14.15406 24.57576,-21.24227 54.83055,-43.84532 22.2921,-16.65408 30.31329,-23.42703 30.31329,-25.5956 0,-0.41006 -3.52061,-0.0259 -7.82358,0.85305 -4.30298,0.87925 -7.9816,1.44064 -8.17472,1.24755 -0.55745,-0.55746 5.98006,-7.56884 11.82878,-12.68623 3.05383,-2.67192 7.50284,-5.50259 10.35223,-6.58638 4.54231,-1.72782 6.15971,-1.85295 17.77948,-1.37598 l 12.78263,0.52472 15.38991,-4.82761 c 102.7785,-32.24038 157.1575,-43.27731 238.08712,-48.32314 28.80573,-1.79598 31.40423,-2.60878 40.65555,-12.71762 3.0597,-3.34332 6.0845,-6.37451 6.72178,-6.73601 0.66556,-0.3776 2.1743,0.14158 3.54516,1.21992 1.31258,1.03245 2.51648,1.73068 2.67535,1.55163 0.2756,-0.31061 4.10952,-41.07654 4.09552,-43.54732 -0.004,-0.65262 -1.04867,0.0519 -2.32215,1.56514 -2.79632,3.3232 -4.7477,3.46952 -7.4802,0.56095 -1.13197,-1.20498 -3.91876,-3.11669 -6.19287,-4.24824 -3.73511,-1.85858 -5.30177,-2.04899 -16.2087,-1.9693 -7.99436,0.0581 -19.17546,1.03451 -33.09155,2.88889 -54.66087,7.28372 -99.96652,8.13989 -146.22888,2.76314 -28.35446,-3.29538 -52.63357,-8.91227 -88.09508,-20.38064 -25.22454,-8.15769 -28.11847,-8.85995 -41.19236,-9.99517 -24.54021,-2.13082 -33.06812,-5.42692 -45.48461,-17.58002 l -6.7843,-6.6404 6.26056,0.63795 c 6.68171,0.68097 11.23005,0.61712 12.01571,-0.16858 1.31757,-1.3175 -4.35354,-8.000558 -13.91196,-16.394364 -30.54312,-26.821507 -48.50511,-50.961883 -66.39499,-89.2326468 -31.37726,-67.1235282 -38.12926,-124.2618192 -21.90844,-185.3983392 5.4753,-20.6365 11.08721,-36.0402 24.43782,-67.07747 4.33759,-10.08398 8.15735,-19.24005 8.48835,-20.34683 1.8316,-6.1246 -6.04468,2.44811 -17.21704,18.73939 -4.28513,6.24847 -8.07476,11.37989 -8.4214,11.40317 -1.18048,0.0792 -2.05317,-6.6472 -1.90908,-14.71474 0.19948,-11.16957 3.7059,-21.8321 14.11762,-42.92958 19.43491,-39.38138 48.1883,-84.27691 74.17732,-115.82043 30.98033,-37.6016 80.90042,-86.53144 130.23385,-127.65043 24.10419,-20.09063 65.04937,-51.76031 65.86522,-50.94445 0.24907,0.24907 -6.66706,8.84071 -15.36919,19.09253 -80.28008,94.57647 -118.18086,156.43242 -133.08213,217.19662 -1.68778,6.88241 -4.53125,20.76401 -6.31881,30.84799 -8.75085,49.36506 -12.48848,63.27482 -23.19103,86.30634 -7.20021,15.49463 -17.51298,35.32747 -18.36975,35.32747 -0.35116,0 -1.56707,-6.68715 -2.70201,-14.86031 -2.27432,-16.37829 -4.83585,-29.7717 -6.43002,-33.62036 -1.25081,-3.01973 -3.43408,-3.19799 -5.95083,-0.48589 -5.6897,6.1313 -29.9594,54.74195 -35.49571,71.0956 -8.89104,26.26315 -12.26274,47.57206 -12.19556,77.07472 0.11064,48.58397 13.66959,90.056333 43.29891,132.437094 14.39933,20.596271 33.23464,41.752236 40.40558,45.38381 3.53626,1.79079 7.57757,1.477672 7.57757,-0.587151 0,-0.480454 -1.40862,-3.964636 -3.13028,-7.742529 -1.72165,-3.777982 -3.13028,-7.19455 -3.13028,-7.592543 0,-1.150513 17.16822,4.943251 23.91479,8.488519 7.54176,3.963027 14.75939,10.991314 21.14965,20.594751 5.21231,7.833217 7.64831,9.822824 18.96373,15.488903 25.05698,12.546796 64.73172,23.805706 100.53522,28.529746 15.16612,2.00106 74.26241,2.30952 92.11972,0.4809 44.57518,-4.56475 77.91584,-10.83525 98.93947,-18.608 11.9568,-4.42059 14.39694,-4.74095 15.44871,-2.02816 0.88249,2.27625 -0.18666,4.24699 13.60459,-25.077134 2.40539,-5.114523 4.37344,-9.459264 4.37344,-9.654952 0,-0.195687 -1.37201,-0.09838 -3.0489,0.216169 -2.91627,0.547083 -3.18196,0.364096 -6.10832,-4.207725 -3.25283,-5.081789 -8.0086,-9.711476 -12.2052,-11.881656 -5.04824,-2.610566 -17.05304,-7.104398 -41.24322,-15.438818 -34.95004,-12.041569 -54.93367,-20.116712 -76.46831,-30.8999966 -15.90314,-7.96332082 -21.53599,-11.3739239 -36.75268,-22.2530934 -16.36938,-11.703301 -19.2584,-14.191079 -32.4166,-27.914467 -11.6488,-12.149152 -16.84394,-18.469433 -26.83299,-32.644369 -27.39722,-38.877938 -54.4972,-95.263958 -60.88959,-126.690948 -1.19286,-5.86447 -3.02324,-11.33287 -5.31642,-15.8832 -4.7705,-9.46612 -5.92088,-16.05475 -4.64103,-26.58089 1.27155,-10.45781 2.66942,-17.01127 3.62856,-17.01127 0.41098,0 1.68359,2.41479 2.82803,5.3662 1.14443,2.95141 2.36763,5.3662 2.71824,5.3662 1.09172,0 4.01457,-11.23371 8.72633,-33.53874 2.49383,-11.80563 6.36339,-29.71532 8.59901,-39.79929 15.96006,-71.9896 35.12218,-126.20395 59.69549,-168.89327 3.77763,-6.56259 6.86843,-12.50929 6.86843,-13.21487 0,-2.85832 -8.71138,3.27663 -28.00262,19.72074 -5.80936,4.95197 -10.98428,9.15224 -11.49982,9.33392 -2.43977,0.85983 2.74906,-16.52193 7.41676,-24.84494 10.63545,-18.9642 35.7949,-47.2917 75.46244,-84.9646 49.07188,-46.60434 83.78464,-74.01057 137.34614,-108.43672 67.11754,-43.13917 134.18632,-79.31083 217.94086,-117.54027 3.56628,-1.62782 6.48415,-2.64973 6.48415,-2.27092 0,0.37881 -4.12526,3.65926 -9.16725,7.28989 -83.5132,60.13608 -132.17104,99.55827 -175.38546,142.09589 -38.46866,37.86619 -63.21836,70.49414 -91.30545,120.3695 -25.49147,45.2662 -29.70471,52.49045 -36.83109,63.15267 -7.85678,11.75502 -21.77571,29.54105 -32.1177,41.041 -10.88784,12.10691 -29.18018,31.30282 -29.82938,31.30282 -0.34984,0 1.45296,-8.35115 4.00622,-18.5581 6.07217,-24.27422 8.41178,-35.76475 8.41178,-41.31284 0,-5.70549 -1.35986,-5.88899 -6.25571,-0.84416 -17.36067,17.88899 -44.33133,74.79792 -59.06826,124.63585 -7.66013,25.90538 -18.64643,75.07194 -20.19041,90.35742 -0.57426,5.68511 -0.50037,6.15149 0.80385,5.07387 0.78993,-0.65269 2.70768,-3.1681 4.26168,-5.58979 1.554,-2.4217 3.18596,-4.40309 3.62659,-4.40309 1.13248,0 0.99846,23.09391 -0.16713,28.79929 -0.53254,2.60669 -2.61663,8.11905 -4.6313,12.24967 l -3.66303,7.51022 1.04376,6.08672 c 3.10297,18.09519 17.58274,52.5324 33.51671,79.7128 4.24702,7.24464 12.50195,19.52071 18.34429,27.280165 22.42,29.776967 49.31726,50.927799 87.07627,68.472993 38.50635,17.892459 83.71689,30.57062783 113.06916,31.7074389 14.12228,0.5469765 22.2741,-0.85535401 36.14904,-6.2185196 11.98583,-4.6329513 14.71803,-5.0747143 16.04547,-2.5943687 0.96088,1.7954045 2.30166,1.2152828 35.0769,-15.1767606 18.74282,-9.373933 33.72302,-17.352073 33.28935,-17.729192 -0.43366,-0.377127 -6.02052,-2.613785 -12.41524,-4.970351 -49.3202,-18.175391 -73.56088,-34.714727 -97.05179,-66.218125 -20.18085,-27.06433 -35.50882,-60.55128 -42.16592,-92.11972 -1.87948,-8.91266 -2.07287,-12.10939 -2.05599,-33.98592 0.02,-25.93954 0.53688,-31.16867 5.83475,-59.02817 2.97228,-15.63002 11.65474,-51.97029 16.07175,-67.26787 10.72396,-37.14075 19.97087,-60.84379 37.12048,-95.15259 20.16565,-40.34258 24.4883,-47.57105 53.96267,-90.23801 45.81473,-66.32117 70.5782,-96.34602 126.13693,-152.93663 l 19.75628,-20.12324 19.756282,20.12324 c 55.5587471,56.59061 80.322228,86.61546 126.136944,152.93663 29.169308,42.22537 34.288929,50.79835 54.419954,91.1286 16.69701,33.45072 26.04162,57.47576 36.6632,94.262 4.41701,15.29758 13.09942,51.63785 16.07176,67.26787 5.29787,27.8595 5.81472,33.08863 5.83476,59.02817 0.017,21.87516 -0.17664,25.07382 -2.0557,33.98592 -9.2389,43.81748 -34.93932,90.27402 -65.13267,117.734896 -17.570454,15.980349 -38.827125,27.579188 -75.333098,41.106075 l -12.786218,4.737789 34.2951,17.184764 c 33.791393,16.9323301 34.316296,17.1578535 35.731452,15.3525216 1.831662,-2.3367376 3.789609,-2.0061351 16.003884,2.7023187 14.0843,5.42933972 22.06804,6.7760406 36.6302,6.1788365 29.17172,-1.1963311 73.89915,-13.7563818 112.40842,-31.5657538 37.58431,-17.381561 64.82474,-38.793127 87.2558,-68.584842 5.84236,-7.759455 14.09727,-20.035525 18.34435,-27.280165 15.93394,-27.1804 30.41373,-61.61761 33.51673,-79.7128 l 1.04372,-6.08672 -3.66305,-7.51022 c -2.01465,-4.13062 -4.0987,-9.64298 -4.6313,-12.24967 -1.16554,-5.70538 -1.2996,-28.79929 -0.16707,-28.79929 0.44057,0 2.07252,1.98139 3.62657,4.40309 1.55396,2.42169 3.47175,4.9371 4.26166,5.58979 1.30398,1.07741 1.37938,0.61019 0.81915,-5.07387 -1.47777,-14.99323 -12.50933,-64.22849 -20.33941,-90.77817 -14.52174,-49.23846 -41.6391,-106.39334 -58.93454,-124.2151 -4.89585,-5.04483 -6.25573,-4.86133 -6.25573,0.84416 0,5.54809 2.33957,17.03862 8.41178,41.31284 2.55324,10.20695 4.35601,18.5581 4.00623,18.5581 -0.71657,0 -20.04704,-20.39341 -30.94293,-32.64437 -11.29262,-12.69719 -22.83514,-27.47729 -31.01009,-39.70825 -7.12077,-10.65395 -11.33484,-17.87972 -36.82517,-63.14387 -14.38642,-25.54652 -25.37416,-42.76183 -38.81657,-60.81691 -40.30247,-54.13185 -105.115047,-112.59358 -205.738762,-185.57884 -11.067783,-8.02778 -22.638646,-16.42079 -25.71303,-18.65113 -3.074384,-2.23034 -5.589789,-4.35711 -5.589789,-4.72616 0,-0.36904 2.91787,0.66086 6.484155,2.28868 83.754537,38.22944 150.823326,74.4011 217.940866,117.54027 53.56145,34.42615 88.27422,61.83238 137.34613,108.43672 39.66755,37.6729 64.82697,66.0004 75.46242,84.9646 4.66769,8.32301 9.85654,25.70477 7.4168,24.84494 -0.51551,-0.18168 -5.6905,-4.38195 -11.49985,-9.33392 -13.31917,-11.35344 -21.38072,-17.62386 -25.09592,-19.52007 -2.57399,-1.31375 -2.90669,-1.32569 -2.90669,-0.10426 0,0.75861 3.09495,6.70352 6.87768,13.21092 20.15311,34.66929 37.79126,80.73731 51.61665,134.81489 4.30431,16.83612 9.45363,39.62995 16.66857,73.78521 4.71179,22.30503 7.63467,33.53874 8.72633,33.53874 0.35059,0 1.57382,-2.41479 2.71825,-5.3662 1.14443,-2.95141 2.41711,-5.3662 2.82807,-5.3662 0.95912,0 2.35701,6.55346 3.62854,17.01127 1.27983,10.52614 0.1295,17.11477 -4.64105,26.58089 -2.29316,4.55033 -4.12357,10.01873 -5.31638,15.8832 -6.38265,31.37886 -33.49715,87.82245 -60.79383,126.552823 -9.84304,13.965985 -15.1867,20.468895 -26.82518,32.644368 -13.31917,13.933797 -16.0358,16.277805 -32.51236,28.052593 -15.21326,10.8719788 -20.86789,14.29504039 -36.76051,22.2530934 -21.53464,10.7832846 -41.51827,18.8584276 -76.46831,30.8999966 -24.19019,8.33442 -36.195,12.828252 -41.24325,15.438818 -4.19655,2.17018 -8.95234,6.799867 -12.20515,11.881656 -2.92637,4.571821 -3.19208,4.754808 -6.10834,4.207725 -1.67685,-0.314549 -3.0489,-0.411856 -3.0489,-0.216169 0,0.195688 1.96806,4.540429 4.37345,9.654952 13.79122,29.324124 12.7221,27.353384 13.60457,25.077134 1.05097,-2.71073 3.49402,-2.39189 15.39732,2.00982 21.18852,7.83519 54.11604,14.03091 98.99087,18.62634 17.85727,1.82862 76.9536,1.52016 92.11972,-0.4809 35.80354,-4.72404 75.47825,-15.98295 100.53526,-28.529746 11.33091,-5.67386 13.74874,-7.651661 18.99903,-15.541939 6.21736,-9.343623 12.97832,-15.966942 20.64474,-20.224662 6.34786,-3.525323 24.38436,-10.034432 24.38436,-8.799848 0,0.394773 -1.40863,3.808837 -3.13028,7.586819 -1.72166,3.777893 -3.13028,7.262075 -3.13028,7.742529 0,2.064823 4.04128,2.377941 7.5776,0.587151 6.95925,-3.524339 25.83395,-24.5779 39.78678,-44.379705 29.93292,-42.48068 43.80651,-84.634764 43.91768,-133.441199 0.0931,-40.87253 -6.7988,-69.9559 -25.52173,-107.70024 -10.65959,-21.48926 -19.45479,-37.54458 -22.16955,-40.47008 -2.51674,-2.7121 -4.69998,-2.53384 -5.95084,0.48589 -1.59412,3.84866 -4.15568,17.24207 -6.42996,33.62036 -1.13495,8.17316 -2.34798,14.86031 -2.69562,14.86031 -0.88283,0 -10.98174,-19.38043 -18.17567,-34.88029 -10.92522,-23.53923 -14.60473,-37.18541 -23.39152,-86.75352 -1.78757,-10.08398 -4.63103,-23.96558 -6.31879,-30.84799 -14.90846,-60.7935 -52.7634,-122.57455 -133.08214,-217.19662 -8.70219,-10.25182 -15.61832,-18.84346 -15.36924,-19.09253 0.98461,-0.98462 47.03213,34.92326 73.45528,57.28044 42.81582,36.22736 91.43804,83.97997 118.72999,116.60651 28.40435,33.9565 57.62321,79.05366 78.09114,120.52836 10.41167,21.09748 13.91813,31.76001 14.11766,42.92958 0.14408,8.06754 -0.72864,14.79398 -1.90912,14.71474 -0.34665,-0.0233 -4.13626,-5.1547 -8.42144,-11.40317 -11.17233,-16.29128 -19.04857,-24.86399 -17.217,-18.73939 0.33101,1.10678 4.15076,10.26285 8.48835,20.34683 13.35065,31.03727 18.96253,46.44097 24.43784,67.07747 16.22076,61.13652 9.46883,118.274811 -21.90849,185.3983392 -17.88983,38.2707638 -35.85183,62.4111398 -66.39498,89.2326468 -9.55836,8.393806 -15.22953,15.076864 -13.91195,16.394364 0.7857,0.7857 5.334,0.84955 12.01572,0.16858 l 6.26056,-0.63795 -6.7843,6.6404 c -12.56182,12.29539 -20.77327,15.44705 -45.92374,17.62617 -12.64607,1.09578 -15.63156,1.8246 -40.75323,9.94902 -35.46153,11.46837 -59.74062,17.08526 -88.09508,20.38064 -46.21449,5.37121 -91.32096,4.52442 -146.22888,-2.74508 -13.64704,-1.80679 -25.25171,-2.81984 -33.09155,-2.88889 -10.92746,-0.0961 -12.46657,0.0894 -16.20869,1.95124 -2.2741,1.13155 -5.06095,3.04326 -6.19286,4.24824 -2.73256,2.90857 -4.68388,2.76225 -7.48021,-0.56095 -1.27349,-1.51344 -2.31846,-2.21776 -2.32213,-1.56514 -0.0143,2.47078 3.81993,43.23671 4.09548,43.54732 0.15884,0.17905 1.36275,-0.51918 2.67532,-1.55163 1.37088,-1.07834 2.87968,-1.59752 3.54518,-1.21992 0.63732,0.3615 3.66207,3.39269 6.72179,6.73601 9.25132,10.10884 11.84981,10.92164 40.65556,12.71762 80.98352,5.04914 135.24016,16.0613 238.08709,48.32314 l 15.38999,4.82761 12.78255,-0.52472 c 11.61531,-0.47679 13.23179,-0.35184 17.70165,1.36802 2.70546,1.04095 7.36735,4.00488 10.35981,6.58638 5.83073,5.03001 12.47497,12.11822 11.89909,12.69419 -0.19318,0.19309 -3.8718,-0.3683 -8.17477,-1.24755 -4.30298,-0.87925 -7.82356,-1.26311 -7.82356,-0.85305 0,2.16857 8.02121,8.94152 30.31329,25.5956 29.76236,22.23511 38.94241,29.55961 54.37282,43.3824 53.19851,47.65622 86.60506,104.78341 105.26896,180.01643 10.65181,42.93709 15.15352,83.45796 15.20217,136.83803 0.0233,25.2976 -0.27815,33.50583 -1.56988,42.78622 -0.87907,6.31583 -1.40693,11.6747 -1.17314,11.90848 0.64493,0.64493 6.7225,-8.22861 12.23368,-17.86147 2.70546,-4.72879 5.1731,-8.61204 5.48363,-8.6293 1.0981,-0.0608 2.56548,7.99608 2.55037,14.00372 -0.0537,21.12753 -21.66146,66.01791 -46.84234,97.31349 -20.29371,25.22157 -62.9497,62.24038 -101.15998,87.79117 -29.19131,19.5199 -54.06873,30.30927 -90.33099,39.17673 -7.37852,1.80429 -14.11981,3.4823 -14.98064,3.72888 -0.86082,0.24667 -1.56514,0.0707 -1.56514,-0.39075 0,-0.46149 7.44301,-4.55322 16.54014,-9.09266 19.84841,-9.90439 37.02748,-20.33458 50.2032,-30.48054 34.06131,-26.22917 71.1225,-71.11839 84.29965,-102.10541 5.61116,-13.19504 7.89609,-24.04075 9.0593,-42.9997 1.15159,-18.7715 3.30209,-31.11277 7.74155,-44.428 3.84372,-11.5282 13.70634,-35.80184 14.54669,-35.80184 0.33655,0 1.75143,5.13143 3.14405,11.40317 3.40289,15.32425 6.33578,25.23079 7.94698,26.84199 1.17618,1.17618 1.49109,1.01644 2.73372,-1.38636 2.65341,-5.13125 3.51111,-18.86371 2.94443,-47.14401 C 680.41839,602.0448 668.30492,545.22071 643.63329,487.68201 617.47066,426.6662 586.63756,387.84292 530.84163,345.66121 512.18032,331.5533 493.82792,319.71145 490.62484,319.71145 c -1.44136,0 -1.09372,3.69874 0.88945,9.46284 0.9974,2.899 1.70171,5.79996 1.56514,6.4465 -0.16304,0.77184 -3.12331,-0.60638 -8.61954,-4.01302 -15.48685,-9.59897 -20.29988,-15.35564 -21.5994,-25.83395 -0.40112,-3.23439 -0.86494,-6.00638 -1.03075,-6.15986 -0.92943,-0.86029 -61.31409,-20.1955 -77.09107,-24.6846 -51.76323,-14.7286 -84.33498,-19.4936 -138.51193,-20.26338 -49.32036,-0.70083 -52.25182,0.12798 -67.94277,19.20919 -2.79561,3.39958 -4.73361,3.64616 -7.58717,0.96538 -1.13656,-1.06769 -2.20247,-1.772 -2.36873,-1.56514 -0.47858,0.59547 -15.80336,55.15548 -15.80336,56.26369 0,0.54771 1.30801,0.0197 2.90669,-1.17341 5.28329,-3.94281 6.65202,-4.37363 9.38279,-2.95311 2.44234,1.27054 4.88682,4.9767 18.36063,27.8376 14.46726,24.5466 19.61273,29.5656 48.94848,47.74529 32.50422,20.14328 70.04158,49.18335 96.018,74.28249 14.27113,13.78916 35.80005,37.93866 58.53082,65.65533 8.38566,10.22512 12.48946,14.42264 17.83205,18.23935 26.67689,19.05761 34.73557,30.82603 39.60898,57.84216 0.96877,5.37058 1.61567,9.91038 1.43751,10.08854 -0.17816,0.17815 -4.66975,-3.29395 -9.98131,-7.71579 -5.31155,-4.42184 -10.0423,-7.80192 -10.51273,-7.51116 -1.32528,0.81906 -0.14078,6.83278 3.84506,19.52169 7.31081,23.27365 9.82139,40.13093 9.81826,65.92428 -0.009,66.96218 -22.32159,127.48573 -65.26844,177.03622 -30.84928,35.59273 -64.6125,56.86363 -126.2761,79.55397 -18.40141,6.77124 -24.89013,10.35202 -24.89013,13.73576 0,3.14236 2.69455,3.26757 19.67606,0.91422 3.85973,-0.53483 3.95131,-0.49583 2.23592,0.95188 -2.91295,2.45825 -19.27914,9.95304 -24.59507,11.26302 -7.00808,1.72702 -31.78068,1.47284 -44.71832,-0.4589 -22.68801,-3.38759 -51.41443,-10.23137 -70.5629,-16.81087 -50.199258,-17.24874 -88.622484,-42.95811 -114.731629,-76.76801 -9.713265,-12.57819 -25.024546,-36.66902 -23.305574,-36.66902 0.468379,0 3.250037,2.91787 6.181322,6.48416 16.918548,20.58321 36.0943864,36.93652 53.506803,45.63092 20.460506,10.21635 53.546244,18.98355 85.411978,22.63283 17.74288,2.032 27.66776,1.37232 41.5925,-2.76422 21.28493,-6.32316 44.00363,-10.07762 54.47791,-9.00304 16.45768,1.68847 22.8803,2.60287 22.8803,3.25737 0,0.41141 -2.63668,2.00642 -5.85917,3.54437 -7.54765,3.60224 -12.02815,7.50624 -12.02815,10.48063 0,2.18798 0.15356,2.2496 4.35896,1.75162 6.01676,-0.71263 25.17882,-8.43584 44.34277,-17.87221 42.93432,-21.14094 70.41256,-42.51343 91.30495,-71.01671 21.41667,-29.21867 34.83959,-62.99772 40.27144,-101.34403 1.97932,-13.97367 2.71663,-51.79803 1.32974,-68.22271 -1.87262,-22.17778 -6.56438,-44.17955 -9.62696,-45.14475 -0.62364,-0.19658 -3.00963,3.50744 -5.65499,8.77875 -2.55359,5.08867 -4.91159,8.77221 -5.33525,8.33442 -0.41749,-0.43145 -3.78666,-6.62019 -7.48683,-13.75276 -11.6273,-22.41273 -14.31433,-33.66985 -12.18529,-51.05007 l 1.13602,-9.27306 -6.60936,-6.19876 c -50.21429,-47.09536 -82.13171,-71.1878 -131.37337,-99.16536 -19.84241,-11.27385 -36.22291,-19.25911 -42.8693,-20.89803 -9.49871,-2.34244 -17.59246,-0.51427 -37.17648,8.3972 -27.70273,12.60565 -29.74394,13.11168 -32.53472,8.06548 -3.28295,-5.93608 -3.08861,-5.96443 -7.67116,1.11948 -2.338142,3.61441 -5.475579,9.05448 -6.971943,12.08906 l -2.720751,5.51735 9.517666,52.66842 c 5.234728,28.96763 9.965478,55.88814 10.512738,59.82335 1.91627,13.78013 -1.25193,31.38001 -7.102787,39.45685 -7.240879,9.99571 -24.043159,19.48261 -66.328348,37.45007 -27.5625791,11.71172 -66.420557,27.34739 -66.863357,26.90459 -0.214917,-0.21492 5.00532,-6.95817 11.600645,-14.98493 32.128409,-39.10178 45.306716,-56.22961 49.764506,-64.67869 2.068848,-3.92117 2.359875,-5.51797 2.363631,-12.96831 0.0089,-10.44324 -1.168489,-13.25764 -12.495817,-29.96127 -7.651929,-11.28386 -28.706831,-41.31373 -29.968961,-42.74364 -0.343884,-0.38967 -6.021499,1.67783 -12.616824,4.59445 -23.954795,10.59323 -35.182043,13.03977 -59.840168,13.03977 -24.65231,0 -35.88707,-2.44734 -59.81951,-13.03065 -6.58396,-2.91152 -12.20306,-5.06157 -12.48685,-4.77779 -0.28379,0.28378 -8.47046,11.86752 -18.19261,25.74156 -21.18394,30.23074 -24.07393,35.4728 -24.66909,44.74675 -0.89462,13.94013 2.6412,19.38226 50.5518,77.80638 7.59281,9.25901 13.6313,17.00834 13.4188,17.22084 -0.43904,0.43914 -39.41265,-15.2468 -66.85888,-26.90906 -42.28517,-17.96746 -59.08748,-27.45436 -66.32833,-37.45007 -5.84734,-8.07192 -9.01594,-25.6591 -7.10881,-39.45685 0.54392,-3.93521 5.27619,-30.85259 10.51613,-59.81637 l 9.52716,-52.66136 -2.72418,-5.52441 c -1.4983,-3.03834 -4.63723,-8.48163 -6.97539,-12.09604 -4.58258,-7.08391 -4.38824,-7.05556 -7.67118,-1.11948 -2.79078,5.0462 -4.832,4.54017 -32.53471,-8.06548 -19.584,-8.91147 -27.67775,-10.73964 -37.17646,-8.3972 -6.64638,1.63892 -23.0269,9.62418 -42.86932,20.89803 -49.30997,28.01638 -81.08948,52.00471 -131.37339,99.16536 l -6.60931,6.19876 1.13595,9.27306 c 2.12905,17.38022 -0.55793,28.63734 -12.18522,51.05007 -3.70023,7.13257 -7.06933,13.32131 -7.4869,13.75276 -0.42365,0.43779 -2.78164,-3.24575 -5.33525,-8.33442 -2.64527,-5.27131 -5.03128,-8.97533 -5.65499,-8.77875 -3.12451,0.98479 -7.83386,23.34082 -9.63115,45.72072 -1.36399,16.98429 -0.63915,53.68112 1.33617,67.64674 5.4204,38.32269 18.85132,72.12375 40.26926,101.34403 20.89237,28.50328 48.3706,49.87577 91.30497,71.01671 19.16394,9.43637 38.32596,17.15958 44.34274,17.87221 4.2054,0.49798 4.35896,0.43636 4.35896,-1.75162 0,-2.97439 -4.48049,-6.87839 -12.02813,-10.48063 -3.22256,-1.53795 -5.8592,-3.13296 -5.8592,-3.54437 0,-0.6545 6.42266,-1.5689 22.88029,-3.25737 10.47429,-1.07458 33.193,2.67988 54.47795,9.00304 13.92469,4.13654 23.84958,4.79622 41.59247,2.76422 26.5933,-3.0454 53.89905,-9.51462 72.86287,-17.26234 12.30363,-5.02661 13.27057,-5.51627 23.95266,-12.1293 13.40473,-8.29865 30.13583,-23.96732 44.62536,-41.79159 5.86669,-7.21691 4.4958,-3.19191 -3.03279,8.90458 -9.38351,15.07669 -20.3393,29.62302 -29.90076,39.69993 -36.93414,38.92532 -97.60437,66.72455 -169.32424,77.58466 -13.45145,2.03692 -36.54669,2.95857 -43.30969,1.72836 z m 283.00029,-502.34969 c -7.97954,-39.61488 -18.63663,-64.31531 -35.9664,-83.36084 -18.40982,-20.23244 -42.66073,-33.39322 -80.30166,-43.57906 -20.1541,-5.45376 -77.30359,-17.25761 -78.37368,-16.1875 -0.37512,0.3751 15.44391,22.06563 29.15822,39.98077 37.02348,48.3642 60.37185,70.36999 90.89707,85.67045 8.4651,4.24296 23.12309,9.69752 36.57544,13.61037 10.87674,3.16365 38.28424,9.77489 38.7595,9.34944 0.16591,-0.14855 -0.17091,-2.6162 -0.74849,-5.48363 z m 54.555893,0.68366 c 67.539856,-16.1307 94.346785,-36.31423 153.939477,-115.90424 18.42636,-24.60974 20.51963,-27.51857 20.10276,-27.93544 -0.99104,-0.99113 -57.40874,10.59467 -77.003499,15.8132 -59.1213658,15.7455 -91.233944,42.0642 -107.001621,87.69619 -4.374524,12.65985 -11.501907,40.3022 -11.501907,44.60804 0,0.48421 1.359705,0.49664 3.353873,0.0304 1.84463,-0.43109 9.994543,-2.36989 18.110917,-4.30834 z"
         id="path431" />
      <path
         style="display:none;fill:#000000;fill-opacity:0.5;stroke-width:0.894366"
         d="m -380.96476,981.94288 c -0.9838,-0.22985 -4.00229,-0.86137 -6.70775,-1.40326 -2.70546,-0.5419 -7.27533,-1.9355 -10.15527,-3.09692 -6.11349,-2.46533 -16.98732,-8.40785 -16.42112,-8.97408 0.21431,-0.21429 4.16873,0.22324 8.7876,0.97227 10.29336,1.66942 10.76946,1.67399 12.88704,0.12557 1.45202,-1.0617 1.54735,-1.58008 0.65197,-3.54518 -1.30535,-2.86492 -5.88525,-5.19233 -23.02839,-11.7026 -25.03561,-9.50738 -40.21271,-15.91462 -53.21479,-22.46532 -48.35433,-24.36191 -86.50023,-63.35404 -112.05327,-114.53907 -18.14404,-36.34409 -27.48379,-77.03275 -27.45893,-119.62515 0.0148,-25.2841 2.46604,-41.76673 9.79231,-65.84387 4.10009,-13.47462 5.17997,-19.15554 3.803,-20.00662 -0.50403,-0.31151 -5.0154,2.85518 -10.02526,7.03705 -5.00986,4.18188 -9.42366,7.60337 -9.80843,7.60337 -0.98604,0 2.32529,-18.062 4.59105,-25.04226 5.11722,-15.76499 14.37266,-26.70846 35.17713,-41.59268 4.98317,-3.56512 9.90998,-8.06781 12.93404,-11.82066 46.62116,-57.85709 78.66657,-89.42034 125.24554,-123.3611 10.83448,-7.89475 26.72863,-18.46124 46.88344,-31.16821 16.91578,-10.66487 25.18677,-19.807 38.45645,-42.50646 16.93327,-28.96664 16.7794,-28.81979 24.64809,-23.52067 2.55236,1.71888 4.75174,2.99121 4.88751,2.82736 0.27942,-0.337 -15.61354,-56.4371 -16.1533,-57.01898 -0.19192,-0.20686 -1.27885,0.49745 -2.41539,1.56514 -1.13654,1.0677 -2.69566,1.94132 -3.46472,1.94132 -0.76906,0 -3.72438,-2.71664 -6.5674,-6.03698 -8.08805,-9.44594 -12.76572,-12.86823 -20.09157,-14.69953 -10.35436,-2.58839 -60.24349,-2.49332 -88.98945,0.16948 -28.88664,2.67576 -60.24093,8.74717 -92.5669,17.92444 -17.21882,4.88843 -61.3352,18.78616 -74.2324,23.38508 l -5.81338,2.07297 -0.52153,5.44177 c -0.68292,7.12568 -3.56996,12.89712 -8.72063,17.43316 -4.857,4.2774 -21.05457,14.48167 -21.40403,13.48427 -0.13076,-0.37321 0.57355,-3.03664 1.56514,-5.91873 2.24209,-6.5168 2.36488,-10.32635 0.33284,-10.32635 -4.4169,0 -36.15978,22.08226 -58.4525,40.66307 -44.03826,36.7056 -70.56897,72.43311 -93.66672,126.13623 -21.45809,49.89079 -33.61531,99.91663 -37.81857,155.61973 -1.25483,16.62958 -1.27035,53.86213 -0.0258,61.71127 2.96386,18.69118 5.59386,16.1696 12.1267,-11.62676 1.84974,-7.87042 3.65412,-14.63613 4.00971,-15.03492 0.71806,-0.80529 11.95926,27.01406 15.52162,38.41231 3.57608,11.44216 5.82228,25.38444 6.83388,42.41827 1.09244,18.3947 3.40115,29.19113 8.97597,41.97511 10.57904,24.25942 37.86835,60.35917 64.10461,84.80095 20.38749,18.99312 40.27723,32.52434 69.12866,47.02891 9.10017,4.57495 17.14947,8.52447 17.88732,8.77677 0.73785,0.2523 1.10457,0.71728 0.81492,1.03326 -0.78778,0.85949 -33.56115,-7.70112 -46.87478,-12.24396 -32.56322,-11.11116 -59.59712,-27.10493 -98.38029,-58.20375 -52.33479,-41.96536 -77.69512,-72.09334 -98.05944,-116.49442 -9.30435,-20.28664 -12.90886,-33.37766 -12.14262,-44.10004 0.48897,-6.84253 1.21437,-9.87201 2.36376,-9.87201 0.34971,0 3.37313,4.60044 6.71871,10.22314 3.34558,5.6227 7.26832,11.55906 8.71721,13.1919 l 2.63435,2.96876 -0.50776,-4.91901 c -0.27926,-2.70546 -0.97979,-8.74243 -1.55673,-13.4155 -1.35965,-11.01286 -1.33936,-60.26624 0.033,-80.04578 5.83096,-84.04198 26.36839,-152.62378 62.27285,-207.95142 14.59191,-22.48562 34.6117,-45.63673 56.35769,-65.17256 15.10694,-13.57156 24.54518,-21.12788 52.65239,-42.15389 12.72608,-9.51999 25.3031,-19.28755 27.94895,-21.70564 5.13095,-4.68944 6.24688,-7.26825 2.79831,-6.46663 -7.66,1.7805 -14.08627,2.82924 -14.08627,2.29888 0,-0.3446 3.32034,-3.86286 7.37852,-7.81828 9.94791,-9.69619 14.8306,-12.12931 25.26585,-12.59071 4.42711,-0.19569 10.34554,0.0152 13.15206,0.46936 4.93356,0.79787 5.95669,0.56184 30.85563,-7.11692 68.68087,-21.18083 107.0133,-30.65717 152.75289,-37.76282 25.77506,-4.00417 42.78988,-5.69676 85.86159,-8.54138 7.37986,-0.48743 15.42916,-1.49323 17.88732,-2.23529 5.26099,-1.58813 10.73316,-5.74344 15.85462,-12.03933 4.03637,-4.96195 6.15538,-5.59149 9.1984,-2.73265 l 1.91721,1.80108 1.49459,-15.88735 c 0.82202,-8.73814 1.7328,-19.10715 2.02394,-23.04236 l 0.52935,-7.15493 -2.38319,2.90669 c -1.31075,1.59868 -2.91963,2.90669 -3.57529,2.90669 -0.65566,0 -2.87018,-1.40201 -4.92115,-3.11552 -7.93876,-6.63262 -16.90407,-7.21217 -48.62744,-3.14343 -47.71489,6.11979 -74.3562,7.62822 -110.68172,6.26673 -49.28078,-1.84704 -79.42148,-7.14035 -125.33003,-22.01071 -27.82784,-9.01378 -32.29445,-10.14417 -43.97355,-11.12896 -26.15797,-2.20568 -36.37292,-6.26924 -49.27467,-19.60209 l -4.47183,-4.62119 5.81338,0.70878 c 6.17086,0.75235 11.49989,0.72632 12.28621,-0.0599 0.26162,-0.2616 -0.0182,-1.6679 -0.62173,-3.125093 -1.13455,-2.738996 -6.35978,-7.952526 -20.18172,-20.136388 -23.87595,-21.046405 -42.54501,-47.023362 -59.08411,-82.2123276 -24.5117,-52.1515874 -34.30862,-100.4846214 -29.42599,-145.1728814 3.61578,-33.09349 11.386,-59.62229 30.8705,-105.39693 4.81582,-11.31374 9.02069,-21.47597 9.34416,-22.58275 1.73671,-5.94217 -5.4372,1.70523 -17.31366,18.45641 -4.60497,6.49509 -8.50837,11.67356 -8.67422,11.5077 -0.16585,-0.16585 -0.75165,-3.20252 -1.30178,-6.74814 -1.96657,-12.67508 1.43507,-25.22018 13.50974,-49.82346 19.26245,-39.24901 48.73207,-85.21369 75.40349,-117.60916 33.22342,-40.35361 89.8498,-94.87978 144.10111,-138.75655 17.9996,-14.55753 50.62513,-39.42702 51.10005,-38.95209 0.23437,0.23436 -3.33536,4.79716 -7.93272,10.13955 -72.57167,84.33229 -113.91863,146.33561 -132.29479,198.38739 -6.69709,18.96998 -12.70897,44.41384 -17.23152,72.92819 -3.97582,25.06741 -8.40565,42.34101 -15.26133,59.50984 -5.54505,13.88662 -22.74229,48.27901 -23.63134,47.25983 -0.37772,-0.433 -1.8027,-8.63534 -3.16662,-18.22742 -3.67098,-25.81701 -6.06255,-33.98726 -9.55622,-32.6466 -2.01304,0.77247 -7.68367,9.95742 -16.58338,26.86077 -20.40958,38.76418 -27.86349,60.36025 -32.09442,92.98654 -1.97109,15.19985 -1.95377,43.308982 0.0361,58.580993 5.98216,45.912684 24.91257,86.5382518 59.63188,127.972988 14.7342,17.584045 24.33995,25.391058 28.50122,23.163996 2.38851,-1.278317 2.26775,-2.127697 -1.38666,-9.753153 -1.73522,-3.620842 -2.91715,-6.821063 -2.62651,-7.111732 0.74543,-0.745454 13.90136,3.877704 21.86148,7.682427 8.32992,3.98145 15.19617,10.405683 22.46576,21.019575 6.4805,9.461769 10.14747,12.116963 26.54118,19.217426 28.05271,12.15032 59.43043,20.65566 92.32152,25.02482 17.29106,2.29691 77.8795,2.29601 99.14309,0 43.69629,-4.72127 75.36064,-11.05616 97.09483,-19.42528 8.11956,-3.12653 10.04179,-3.28072 10.80786,-0.86709 0.31225,0.9838 0.84245,1.78381 1.17823,1.77773 0.48049,-0.009 15.62712,-31.952574 17.05247,-35.96327 0.22114,-0.6223 -0.58973,-0.779619 -2.27804,-0.441996 -3.25009,0.650025 -3.93482,0.211786 -6.78794,-4.344831 -6.5204,-10.414985 -10.55723,-12.406202 -58.80201,-29.007428 -51.29019,-17.649066 -80.21043,-31.401378 -108.33613,-51.516587 -14.74272,-10.543854 -18.336,-13.647922 -31.17186,-26.927901 -11.51536,-11.91379 -17.00632,-18.515725 -26.61775,-32.003215 -27.54079,-38.647342 -55.18131,-95.945372 -61.88135,-128.278302 -1.06666,-5.14744 -3.10824,-11.56032 -4.65713,-14.62864 -4.3693,-8.65554 -5.28674,-12.12897 -5.35665,-20.28022 -0.0668,-7.79158 2.42801,-24.18257 3.68078,-24.18257 0.38083,0 1.59548,2.41479 2.69923,5.3662 1.10376,2.95141 2.34405,5.3662 2.75621,5.3662 1.3309,0 4.27303,-11.22999 9.80448,-37.4232 15.147,-71.72604 24.8994,-107.48937 39.82501,-146.04364 9.71217,-25.08746 15.36876,-37.14262 26.87072,-57.26608 7.00661,-12.25854 8.56912,-15.9502 6.75101,-15.9502 -1.96507,0 -12.85714,8.40817 -29.77863,22.98771 -4.73701,4.08142 -8.88051,7.42075 -9.20778,7.42075 -0.32726,0 -0.34209,-1.50925 -0.0329,-3.35388 3.59457,-21.44849 20.98774,-44.96618 66.71374,-90.20515 47.14064,-46.63859 80.08915,-74.51885 123.75239,-104.71644 63.49227,-43.91137 144.66021,-89.51469 230.29931,-129.39114 21.36865,-9.94996 28.20536,-12.63656 22.65215,-8.90151 -5.56814,3.74509 -48.69295,35.34205 -64.24018,47.06792 -64.07664,48.32724 -112.01216,90.84064 -147.63093,130.93199 -26.72392,30.0796 -45.76809,58.62616 -75.9523,113.84989 -18.38589,33.63804 -31.12198,52.29117 -51.90613,76.02114 -15.38758,17.56851 -32.96298,36.0867 -33.29737,35.08353 -0.15914,-0.47744 1.90596,-9.67333 4.58911,-20.43531 8.16242,-32.73894 9.67611,-43.26794 6.22035,-43.26794 -3.86948,0 -15.63162,16.14159 -26.50345,36.37162 -19.16541,35.66248 -34.14465,75.65949 -45.32935,121.03684 -4.93466,20.02037 -11.47356,52.61484 -12.20071,60.8169 l -0.59466,6.70775 1.9337,-1.71555 c 1.06353,-0.94356 3.03461,-3.45824 4.38017,-5.5882 1.34557,-2.12995 2.74833,-3.87335 3.11725,-3.87423 0.98719,-0.003 0.81695,22.21121 -0.21324,27.82527 -0.48621,2.64962 -2.65403,8.40777 -4.81737,12.79589 l -3.93336,7.97839 2.13689,9.46175 c 2.76096,12.22496 4.81732,18.34379 11.25001,33.47505 17.39255,40.91152 37.5268,71.665671 62.95454,96.160172 11.24875,10.835908 15.79179,14.466633 28.9905,23.168808 33.8507,22.318418 83.63672,41.3630882 128.18679,49.03532861 11.74453,2.02260029 15.315,2.27816549 26.53857,1.89975019 13.94908,-0.47034722 20.18867,-1.88404512 34.08469,-7.7225306 7.67582,-3.22504 9.37098,-3.3787192 11.38463,-1.0321344 1.44533,1.6843063 2.40119,1.270805 35.86145,-15.5136498 l 34.37654,-17.244079 -4.41527,-1.634213 c -51.9265,-19.219412 -71.08506,-30.245302 -93.10587,-53.583092 -25.70141,-27.2385 -47.17458,-68.76678 -55.52629,-107.38569 -2.16066,-9.99104 -2.3241,-12.36955 -2.36609,-34.4331 -0.0386,-20.32126 0.24605,-25.6136 1.99687,-37.1162 6.2203,-40.86633 20.23034,-95.63184 33.86161,-132.36571 12.23431,-32.96925 40.20707,-88.44339 57.08644,-113.21085 63.46729,-93.12695 85.23139,-120.31555 143.20973,-178.90353 l 22.67129,-22.90964 22.654923,22.90964 c 44.936806,45.44204 66.5480041,70.62548 99.096138,115.47655 10.751624,14.81566 18.532432,26.00385 44.830288,64.46267 16.835013,24.62011 45.249301,81.61146 57.590841,115.51182 12.81921,35.21256 26.78823,90.41311 32.65205,129.02905 1.72068,11.33185 2.03862,17.02716 2.04676,36.66902 0.009,20.83006 -0.20445,24.27883 -2.04523,33.09155 -8.26171,39.55268 -29.98855,81.84863 -56.32621,109.651037 -21.699111,22.905954 -41.072873,34.008285 -92.671903,53.106475 l -4.415218,1.634213 34.376487,17.244079 c 33.460299,16.7844548 34.416198,17.1979561 35.861493,15.5136498 2.013666,-2.3465848 3.708758,-2.1929056 11.384661,1.0321344 13.7431,5.77426104 20.17091,7.24424141 33.82546,7.7356241 10.45506,0.3762331 14.81715,0.1078337 24.59508,-1.51337501 44.92705,-7.44907809 96.183,-26.88183229 130.38947,-49.43479729 13.1987,-8.702175 17.74172,-12.3329 28.99053,-23.168808 25.42772,-24.494501 45.56196,-55.248652 62.95453,-96.160172 6.43264,-15.13126 8.48905,-21.25009 11.24996,-33.47505 l 2.13691,-9.46175 -3.93333,-7.97839 c -2.16339,-4.38812 -4.33115,-10.14627 -4.81742,-12.79589 -1.03013,-5.61406 -1.20042,-27.82762 -0.21321,-27.82527 0.36892,8.8e-4 1.77165,1.74428 3.11722,3.87423 1.34557,2.12996 3.25728,4.60641 4.24824,5.50322 1.77263,1.60421 1.8017,1.58134 1.79705,-1.41473 -0.009,-4.23116 -2.99022,-21.48083 -6.77205,-39.15196 -12.48804,-58.35338 -28.49344,-104.15824 -51.08406,-146.19427 -10.87182,-20.23003 -22.63399,-36.37162 -26.50347,-36.37162 -3.45574,0 -1.94202,10.529 6.22032,43.26794 2.68319,10.76198 4.74139,19.9787 4.5737,20.48161 -0.1676,0.50291 -6.98885,-6.29002 -15.15826,-15.0954 -37.23291,-40.13135 -44.86606,-50.86518 -76.25813,-107.23514 -34.20647,-61.42358 -56.11084,-90.96854 -98.55353,-132.93053 -40.325901,-39.86907 -86.070051,-77.38068 -158.893644,-130.29774 -12.21275,-8.87434 -23.0793,-16.72322 -24.147889,-17.44196 -5.55321,-3.73505 1.283505,-1.04845 22.652151,8.90151 110.808579,51.59622 211.868122,111.55804 277.700722,164.76859 25.15038,20.32835 45.40742,38.72496 76.35106,69.33899 33.52648,33.16946 51.53195,54.45299 59.92424,70.83422 3.4773,6.78745 8.00654,21.39247 6.95906,22.43998 -0.26026,0.26026 -6.23301,-4.44808 -13.27275,-10.46298 -12.36595,-10.56563 -24.35109,-19.66065 -25.90818,-19.66065 -1.84186,0 -0.22341,3.7322 7.42726,17.1278 13.26372,23.22325 25.33579,51.29126 35.90863,83.48841 11.29674,34.40179 17.35562,58.28164 30.10285,118.64371 5.53138,26.19321 8.47358,37.4232 9.80449,37.4232 0.41212,0 1.65243,-2.41479 2.75617,-5.3662 1.10373,-2.95141 2.31837,-5.3662 2.69919,-5.3662 1.25283,0 3.74767,16.39099 3.68086,24.18257 -0.0698,8.15632 -0.98667,11.62326 -5.36844,20.30342 -1.56684,3.10391 -3.72289,9.8803 -4.9648,15.60416 -7.17827,33.08331 -34.14556,88.81525 -61.60645,127.319229 -9.54575,13.384468 -15.14046,20.111694 -26.57681,31.956815 -12.83416,13.292832 -16.38685,16.363093 -31.15883,26.927892 C 286.54417,5.3239302 259.07469,18.247075 202.60924,37.743097 160.66355,52.225748 155.0599,54.963046 149.24133,63.8128 c -3.99809,6.080796 -4.42237,6.39445 -7.75022,5.728863 -1.6883,-0.337623 -2.49922,-0.180304 -2.27804,0.441996 1.42535,4.010696 16.57198,35.954681 17.05243,35.963271 0.33575,0.009 0.86602,-0.79393 1.17824,-1.77773 0.76898,-2.42275 2.86027,-2.25837 10.98488,0.86351 22.65903,8.70683 54.63567,14.98332 101.25808,19.87541 17.86363,1.87441 79.47267,1.58267 94.80283,-0.44888 32.84426,-4.35261 64.2603,-12.86707 92.32149,-25.02106 16.39373,-7.100463 20.06072,-9.755657 26.54121,-19.217426 7.26959,-10.613892 14.13582,-17.038125 22.46577,-21.019575 7.96013,-3.804723 21.11598,-8.427881 21.86144,-7.682427 0.29067,0.290669 -0.89124,3.49089 -2.62649,7.111732 -3.65438,7.625456 -3.77512,8.474836 -1.38662,9.753153 4.16122,2.227062 13.76698,-5.579951 28.50121,-23.163996 28.59155,-34.121772 47.42136,-69.72744 55.61662,-105.166649 9.45399,-40.882522 6.93026,-89.181612 -6.69603,-128.148982 -4.23375,-12.10749 -11.77657,-28.28846 -22.74383,-48.79047 -12.19665,-22.80042 -14.90381,-26.41943 -17.6835,-23.6398 -1.88094,1.881 -4.40314,13.31078 -7.05932,31.99121 -1.36391,9.59208 -2.7889,17.79436 -3.1665,18.22729 -0.82049,0.94057 -17.23354,-31.54935 -22.722,-44.97845 -7.17166,-17.54749 -10.45031,-29.51415 -14.72404,-53.7418 -5.85551,-33.19406 -7.42637,-41.13998 -10.79286,-54.59367 -1.91305,-7.645 -5.46144,-19.51771 -7.88545,-26.38381 -18.36384,-52.01685 -59.77183,-114.11169 -132.29474,-198.38739 -4.5974,-5.34239 -8.16708,-9.90519 -7.93276,-10.13955 0.47491,-0.47493 33.10049,24.39456 51.10006,38.95209 54.25127,43.87677 110.87772,98.40294 144.1011,138.75655 26.63324,32.34909 56.01863,78.17009 75.4236,117.60916 11.85733,24.09902 15.43229,37.30277 13.48964,49.82337 -0.55013,3.54562 -1.14506,6.59139 -1.32205,6.76836 -0.17691,0.17697 -2.24397,-2.42216 -4.59329,-5.77582 -12.7186,-18.15542 -20.20418,-27.26233 -21.41426,-26.05224 -0.67417,0.67417 2.57068,9.08784 10.97253,28.45112 17.35804,40.00392 25.75194,69.06291 29.28209,101.37229 4.87689,44.63578 -4.94307,93.082541 -29.42599,145.172882 -16.53916,35.188965 -35.20825,61.165922 -59.08416,82.212328 -13.82189,12.183862 -19.04714,17.397391 -20.18173,20.136388 -0.60352,1.457192 -0.88337,2.863492 -0.62167,3.125092 0.7814,0.7815 6.09555,0.78892 12.28617,0.017 l 5.81338,-0.72471 -4.47183,4.65062 c -6.35429,6.60829 -15.76785,13.0132 -22.20479,15.1079 -7.0519,2.29485 -13.5839,3.38643 -27.06987,4.52352 -11.6332,0.98094 -15.44553,1.94775 -44.18661,11.20597 -46.30921,14.9174 -75.78582,20.08478 -125.11701,21.9337 -36.34651,1.36221 -62.45771,-0.11376 -110.31203,-6.2357 -32.07662,-4.10353 -41.04184,-3.53409 -48.99714,3.1124 -2.05096,1.71351 -4.26541,3.11552 -4.92107,3.11552 -0.65566,0 -2.26453,-1.30801 -3.57532,-2.90669 l -2.38321,-2.90669 0.52937,7.15493 c 0.29112,3.93521 1.20194,14.30423 2.02395,23.04236 l 1.49458,15.88735 1.91725,-1.80108 c 3.04299,-2.85884 5.16201,-2.2293 9.19838,2.73265 5.12141,6.29589 10.59359,10.4512 15.85461,12.03933 2.45816,0.74206 10.50746,1.74786 17.88732,2.23529 43.0717,2.84462 60.08648,4.53721 85.86158,8.54138 45.73959,7.10565 84.07203,16.58199 152.75292,37.76282 24.89889,7.67876 25.92205,7.91479 30.85564,7.11692 2.80643,-0.4538 8.7249,-0.66505 13.15201,-0.46936 10.43529,0.4614 15.31799,2.89453 25.26585,12.59071 4.05819,3.95542 7.37852,7.47368 7.37852,7.81828 0,0.53036 -6.42629,-0.51838 -14.08627,-2.29888 -3.44859,-0.80162 -2.3326,1.7772 2.79829,6.46663 2.6459,2.41809 15.22292,12.18565 27.94895,21.70564 28.45784,21.28833 37.64459,28.6546 53.0996,42.5772 72.0403,64.89754 109.81279,152.05523 118.18334,272.70068 1.37232,19.77953 1.39262,69.03291 0.0331,80.04577 -0.57695,4.67307 -1.27751,10.71004 -1.55673,13.4155 l -0.50782,4.91901 2.63435,-2.96876 c 1.44897,-1.63284 5.39196,-7.60327 8.76229,-13.26756 3.37033,-5.66438 6.40286,-10.46883 6.73896,-10.6765 0.92415,-0.57114 2.55064,8.02864 2.55064,13.48588 0,12.04318 -8.17549,34.63657 -21.2987,58.86003 -18.81309,34.72619 -43.34117,61.86403 -89.15553,98.64162 -39.33825,31.57891 -67.18077,47.90763 -100.16902,58.74583 -18.69377,6.14179 -44.64336,12.84122 -44.09091,11.38304 0.14685,-0.38762 7.9138,-4.55152 17.25992,-9.25302 29.2498,-14.71412 48.26886,-27.59218 68.77704,-46.57001 26.64961,-24.66081 54.20458,-60.95607 64.90344,-85.49006 5.49615,-12.60358 7.87114,-23.58041 8.98176,-41.51245 1.27152,-20.53063 2.97431,-30.94275 7.25224,-44.34635 3.37498,-10.57445 14.45475,-37.66954 15.10513,-36.9392 0.3514,0.39459 2.15229,7.15681 4.00202,15.02723 6.53281,27.79637 9.16287,30.31794 12.12671,11.62676 1.2446,-7.84914 1.22913,-45.08169 -0.0259,-61.71127 -4.20326,-55.7031 -16.36047,-105.72894 -37.81855,-155.61973 -23.04102,-53.5712 -49.41534,-89.10267 -93.66671,-126.18792 -21.15578,-17.72974 -54.08966,-40.61138 -58.45247,-40.61138 -2.03209,0 -1.90929,3.80955 0.3328,10.32635 0.99158,2.88209 1.69589,5.54552 1.56514,5.91874 -0.34943,0.99739 -16.54703,-9.20688 -21.40398,-13.48427 -5.1519,-4.53712 -8.03793,-10.30802 -8.72069,-17.43773 l -0.52151,-5.44633 -8.49648,-2.95588 C 437.25708,290.833 400.4117,279.25856 382.31965,274.13796 349.64291,264.8895 318.6194,258.87953 289.8099,256.21683 c -16.24787,-1.50164 -53.03744,-2.69437 -66.63029,-2.16008 -25.97919,1.0211 -30.58706,2.83255 -42.45074,16.68798 -2.84301,3.32034 -5.79835,6.03698 -6.56742,6.03698 -0.76906,0 -2.32812,-0.87362 -3.46468,-1.94132 -1.13656,-1.06769 -2.22152,-1.772 -2.41103,-1.56514 -0.55165,0.60218 -16.45867,56.69003 -16.17113,57.01898 0.14319,0.16385 2.34861,-1.10848 4.90095,-2.82736 7.86872,-5.29912 7.7148,-5.44597 24.64811,23.52067 13.26971,22.69946 21.54072,31.84159 38.45649,42.50646 20.15472,12.70697 36.04895,23.27346 46.8834,31.16821 46.70738,34.03431 78.49593,65.34455 125.24553,123.3611 3.02412,3.75285 7.95091,8.25554 12.93405,11.82066 15.79505,11.30032 26.43854,22.10766 31.27313,31.75466 2.76851,5.52423 5.47737,14.27122 7.0629,22.80634 2.02779,10.91565 2.1641,12.07394 1.42106,12.07394 -0.37868,0 -4.78746,-3.42149 -9.79734,-7.60337 -5.00988,-4.18187 -9.52124,-7.34856 -10.02522,-7.03705 -1.37696,0.85108 -0.29711,6.53201 3.80294,20.00662 7.32629,24.07714 9.77757,40.55978 9.79232,65.84387 0.025,42.5924 -9.31491,83.28106 -27.45892,119.62515 -25.55303,51.18503 -63.69891,90.17716 -112.05327,114.53907 -13.00212,6.5507 -28.17915,12.95794 -53.21479,22.46532 -17.14312,6.51027 -21.72308,8.83768 -23.02841,11.7026 -0.89535,1.9651 -0.80001,2.48348 0.65199,3.54518 2.11759,1.54842 2.59366,1.54385 12.88702,-0.12557 4.61886,-0.74903 8.56114,-1.19881 8.76049,-0.99936 0.19936,0.19935 -1.36614,1.36739 -3.4789,2.59563 -15.57047,9.05152 -22.89104,10.9736 -41.40487,10.87102 C 159.42212,981.6813 98.376703,965.10592 57.979611,943.24465 18.070663,921.6475 -5.8209001,897.93821 -32.531238,853.42435 c -3.039593,-5.06561 -0.868698,-4.02134 3.718507,1.78873 12.945951,16.39713 28.81317134125,31.12851 43.558945,40.441 22.044071,13.92162 56.313503,24.49419 94.401696,29.12406 18.39202,2.23573 29.96771,1.52686 44.27113,-2.7111 19.65889,-5.82464 29.59646,-7.66337 44.43525,-8.22155 12.26927,-0.46158 29.53805,0.71255 31.91743,2.17009 0.42831,0.26232 -2.59018,2.22546 -6.70775,4.36245 -4.11757,2.13691 -8.19079,4.74372 -9.05161,5.7929 -1.88309,2.29504 -2.04855,5.80435 -0.30525,6.47334 2.41166,0.9254 10.88918,-1.8889 29.14856,-9.67642 50.46587,-21.52364 87.58868,-48.77856 111.19396,-81.63677 30.09596,-41.89319 43.3798,-92.00989 40.78891,-153.88626 -1.30005,-31.04596 -6.38067,-59.17718 -10.68785,-59.17718 -0.47473,0 -2.92118,4.10103 -5.43659,9.11342 l -4.57334,9.1135 -3.08171,-5.31245 c -4.61887,-7.96183 -13.30692,-26.17005 -14.91052,-31.24898 -3.41004,-10.79992 -3.89032,-21.50584 -1.53527,-34.22194 l 0.70628,-3.8134 -11.73721,-10.96984 C 290.88054,511.67198 253.951,484.995 197.7822,455.60577 c -29.43082,-15.39902 -32.04684,-15.32819 -69.8526,1.89122 -10.62238,4.83817 -15.34169,6.53532 -18.31411,6.58603 -3.88477,0.0662 -4.07393,-0.0599 -6.33739,-4.22025 l -2.33305,-4.28866 -4.997803,8.31331 c -2.748746,4.57236 -5.91677,10.23191 -7.040094,12.57685 l -2.042464,4.26344 9.577411,52.976 c 11.26061,62.28652 11.71781,65.35804 10.94785,73.54633 -2.29378,24.39133 -10.00501,33.08269 -43.407532,48.92514 -19.97728,9.47491 -96.450961,41.39735 -97.252313,40.59609 -0.186028,-0.18603 2.616111,-3.90337 6.226936,-8.26073 33.2143476,-40.08129 52.072597,-64.72501 55.601855,-72.65974 2.305408,-5.18321 2.503242,-6.41905 2.146926,-13.4155 C 30.146157,591.44674 28.907102,589.24276 1.0962473,549.76919 -13.729573,528.726 -12.116494,529.93268 -20.088069,533.92164 c -12.503598,6.25681 -26.863543,11.17645 -39.587423,13.56244 -11.462377,2.14943 -38.151518,2.14943 -49.613898,0 -12.72388,-2.38599 -27.08382,-7.30563 -39.58742,-13.56244 -7.97154,-3.98896 -6.3585,-5.19564 -21.18432,15.84755 -27.81084,39.47357 -29.04994,41.67755 -29.60951,52.66609 -0.35628,6.99645 -0.15851,8.23229 2.14692,13.4155 3.58304,8.05555 21.41306,31.35281 55.60848,72.65974 3.60716,4.35736 6.40634,8.0747 6.22032,8.26073 -0.80136,0.80126 -77.275,-31.12118 -97.25232,-40.59609 -33.40256,-15.84245 -41.11374,-24.53381 -43.4075,-48.92514 -0.77002,-8.18829 -0.3128,-11.25981 10.94784,-73.54633 l 9.5774,-52.976 -2.04243,-4.26344 c -1.12333,-2.34494 -4.29142,-8.00449 -7.04018,-12.57685 l -4.99775,-8.31331 -2.33307,4.28866 c -2.2634,4.16068 -2.45259,4.28661 -6.33734,4.22025 -2.97245,-0.051 -7.69175,-1.74786 -18.31415,-6.58603 -37.80579,-17.21941 -40.42183,-17.29024 -69.85257,-1.89122 -56.16879,29.38923 -93.09835,56.06621 -145.80015,105.32218 l -11.73719,10.96984 0.70625,3.8134 c 2.35505,12.7161 1.87476,23.42202 -1.53522,34.22194 -1.60364,5.07893 -10.29173,23.28715 -14.91052,31.24898 l -3.0818,5.31245 -4.57334,-9.1135 c -2.51533,-5.01239 -4.9618,-9.11342 -5.43658,-9.11342 -4.30711,0 -9.38778,28.13122 -10.68779,59.17718 -2.59097,61.87637 10.69292,111.99307 40.78889,153.88626 23.6053,32.85821 60.72807,60.11313 111.19395,81.63677 18.25935,7.78752 26.73691,10.60182 29.14857,9.67642 1.7433,-0.66899 1.57781,-4.1783 -0.30526,-6.47334 -0.86082,-1.04918 -4.93405,-3.65599 -9.05163,-5.7929 -4.11756,-2.13699 -7.13605,-4.10013 -6.70774,-4.36245 2.36959,-1.45155 19.65872,-2.63221 31.91744,-2.17957 14.9721,0.55272 22.99206,2.01948 43.0937,7.88134 10.35355,3.01929 14.30164,3.73228 22.80634,4.119 24.37705,1.1083 68.35031,-7.69262 96.20552,-19.25472 23.52729,-9.76576 45.54814,-27.28667 64.56146,-51.36855 4.58721,-5.81007 6.7581,-6.85434 3.71851,-1.78873 -17.55829,29.2616 -32.26976,47.43682 -51.79534,63.99047 -35.5685,30.15454 -92.80308,53.3722 -153.831,62.40262 -11.56915,1.7119 -35.15968,3.0006 -38.90493,2.12528 z m 277.22805,-513.02083 c -9.44675,-42.39984 -23.5196,-67.49227 -48.79868,-87.01012 -25.38527,-19.59976 -56.80512,-30.24219 -128.14289,-43.40422 -8.29771,-1.53097 -15.25673,-2.6136 -15.46447,-2.40584 -0.43198,0.43198 21.11057,29.75932 33.61911,45.76803 15.02133,19.22458 22.95247,28.53681 34.63408,40.66513 31.28428,32.48043 57.9317,46.3788 113.89312,59.40256 7.13257,1.66003 13.0912,2.6975 13.24145,2.30558 0.15017,-0.39191 -1.19156,-7.2864 -2.98172,-15.32112 z m 59.948024,10.32189 c 61.66387,-15.54409 88.485735,-34.60259 137.667651,-97.82122 13.970265,-17.95736 33.743365,-44.87653 33.293765,-45.32622 -1.03836,-1.03827 -57.481364,10.47062 -77.123614,15.72573 -65.871506,17.6234 -97.851717,47.68886 -112.690058,105.94296 -2.142365,8.41062 -5.742815,25.0317 -5.742815,26.51099 0,0.72721 9.276992,-1.17091 24.595071,-5.03224 z"
         id="path429" />
      <path
         style="display:inline;fill:#000000;fill-opacity:0.5;stroke-width:0.894366"
         d="m -382.27114,981.44794 c -8.13989,-1.24264 -18.16648,-4.78263 -25.72979,-9.08417 -3.55616,-2.02252 -6.36252,-3.78058 -6.23635,-3.90677 0.12617,-0.1262 4.25607,0.41731 9.17756,1.20775 10.86581,1.745 14.04463,1.23163 13.64255,-2.20345 -0.41414,-3.53802 -5.48025,-6.54775 -20.85041,-12.38679 -55.68408,-21.154 -80.30745,-34.41772 -106.51605,-57.37637 -41.71129,-36.53898 -71.96382,-88.93855 -83.00575,-143.77188 -9.09198,-45.15011 -7.67061,-84.94297 4.39259,-122.97536 3.76708,-11.87665 4.97292,-19.69851 3.02721,-19.63626 -0.68369,0.0215 -5.26773,3.42963 -10.18674,7.57287 -5.85693,4.93323 -9.04147,7.09062 -9.22703,6.25099 -0.43668,-1.97601 2.37365,-16.31172 4.47107,-22.80732 4.93399,-15.28034 13.63428,-26.31386 30.32509,-38.45775 11.88084,-8.64423 13.61151,-10.40532 31.20469,-31.75322 51.05753,-61.95418 86.34013,-92.59687 161.15829,-139.9651 15.75466,-9.97442 24.69845,-20.49208 39.16758,-46.05986 12.51384,-22.11267 13.9608,-23.30441 21.89726,-18.0349 2.73038,1.81288 4.95155,2.99014 4.93593,2.6162 -0.0156,-0.37393 -3.75659,-13.67244 -8.31329,-29.55227 l -8.28489,-28.87238 -2.12782,2.26498 c -1.1703,1.24577 -2.84546,2.26499 -3.72256,2.26499 -0.90172,0 -3.75495,-2.70743 -6.56569,-6.23016 -6.10746,-7.65461 -11.83278,-12.13145 -17.8242,-13.93745 -8.05228,-2.42713 -23.88366,-3.30888 -49.14912,-2.73738 -67.83376,1.53455 -110.93052,10.37196 -203.71111,41.77289 l -11.29396,3.82235 -0.47616,5.25118 c -0.69131,7.62384 -4.0257,13.71466 -10.22568,18.67884 -5.80338,4.64668 -18.84571,12.89094 -19.44508,12.29163 -0.2148,-0.21483 0.65176,-3.72173 1.92568,-7.79315 1.38989,-4.44196 1.99104,-7.72768 1.50311,-8.21565 -1.84315,-1.8432 -18.13878,8.08972 -39.68339,24.18876 -49.9147,37.2983 -79.60513,71.58919 -103.7217,119.79321 -25.03966,50.04918 -41.12468,105.04305 -46.96647,160.57621 -4.64825,44.18715 -3.38671,90.37884 2.4993,91.51236 2.18384,0.42053 3.47381,-3.06857 7.87665,-21.30461 2.07834,-8.60827 4.05121,-15.97221 4.38415,-16.3643 0.33294,-0.39218 2.62974,4.23616 5.10401,10.28521 12.63341,30.8855 15.44461,42.53498 17.22217,71.36783 1.12192,18.19785 3.12675,27.272 8.9908,40.69366 10.83964,24.80981 35.97278,57.95664 63.91743,84.29751 20.6664,19.48037 39.25168,32.17402 69.13814,47.22102 9.98759,5.02848 18.36549,9.34899 18.61755,9.60102 1.27831,1.27832 -30.9821,-7.08463 -44.82611,-11.62041 -37.40836,-12.25613 -73.68717,-35.36423 -123.42254,-78.61479 -24.15921,-21.0092 -41.62178,-40.27627 -54.52292,-60.15687 -18.29291,-28.18926 -32.67779,-62.30182 -32.67779,-77.49245 0,-4.52961 1.65372,-12.96947 2.53361,-12.93039 0.32817,0.0143 3.18197,4.45547 6.34178,9.86871 5.63906,9.66049 11.0647,16.92579 11.97904,16.04072 0.25449,-0.24631 0.12491,-2.25863 -0.28794,-4.47183 -1.82644,-9.79107 -2.76178,-27.40266 -2.75489,-51.87252 0.0357,-126.98633 33.1782,-225.3735 99.30745,-294.80521 18.59362,-19.52223 35.95008,-34.21667 75.16969,-63.64078 24.08565,-18.07004 30.40845,-23.40306 30.40845,-25.64846 0,-1.66727 0.71388,-1.6704 -7.5233,0.0331 -3.75115,0.77568 -7.25953,1.264 -7.7964,1.08504 -1.80475,-0.60155 14.61997,-15.20476 19.73535,-17.54666 5.89423,-2.69848 14.77971,-3.46486 23.8517,-2.05731 l 6.35257,0.98568 26.2904,-8.1102 c 101.40384,-31.28153 152.40177,-41.18387 236.91364,-46.00182 19.80898,-1.12932 25.42784,-3.28823 34.14356,-13.1191 2.96602,-3.34556 5.79228,-6.08276 6.28056,-6.08276 0.48828,0 2.0567,0.83229 3.48536,1.84964 1.42866,1.01725 2.59757,1.60476 2.59757,1.30541 0,-1.39682 3.61335,-40.64081 3.99616,-43.40154 l 0.43404,-3.13028 -3.16579,3.35388 c -1.74119,1.84463 -3.37456,3.35387 -3.62972,3.35387 -0.25517,0 -2.1765,-1.40335 -4.26964,-3.11848 -8.58452,-7.03437 -17.19015,-7.47967 -54.18196,-2.80374 -41.86199,5.29151 -44.84737,5.47772 -87.20071,5.43971 -35.063,-0.0313 -41.20423,-0.25507 -56.34507,-2.05096 -30.45899,-3.61279 -53.31358,-8.74556 -87.20071,-19.58394 -29.66238,-9.48717 -31.59502,-9.96306 -46.40361,-11.42633 -15.35093,-1.51676 -22.28224,-2.98969 -29.40289,-6.24805 -5.35242,-2.44922 -13.28579,-8.36795 -18.54914,-13.83861 l -3.57746,-3.71842 4.91901,0.72542 c 5.91856,0.8729 12.18892,0.90868 13.02332,0.0742 1.69411,-1.69411 -1.36966,-5.830729 -10.56524,-14.264961 -18.71689,-17.167092 -31.61979,-30.653062 -39.63784,-41.428833 -28.25195,-37.9690674 -51.89382,-96.312361 -58.12835,-143.448861 -2.64301,-19.982625 -2.74847,-33.010815 -0.42796,-52.864535 4.07687,-34.88063 11.21449,-58.91165 31.34573,-105.53521 9.5366,-22.08656 10.48586,-25.29361 6.6803,-22.56906 -2.09291,1.4984 -10.43924,12.00524 -16.5073,20.78032 -3.57162,5.16497 -6.64599,9.55854 -6.83192,9.7635 -1.83859,2.02668 -2.95344,-12.26993 -1.59458,-20.44852 2.64209,-15.90204 13.82601,-39.84271 35.95332,-76.96287 32.93824,-55.25626 62.39066,-91.52409 117.21595,-144.34017 29.28958,-28.21618 56.08955,-51.72343 86.43585,-75.81611 15.40978,-12.23421 40.93613,-31.88924 43.35872,-33.38578 1.65684,-1.02351 0.092,0.91644 -16.67746,20.67504 -67.25662,79.24505 -105.72607,137.89507 -123.18036,187.79917 -6.1398,17.55452 -10.9726,37.09122 -15.24136,61.61363 -9.19212,52.80518 -12.23127,62.67205 -30.69799,99.6636 -11.0571,22.14898 -9.63775,22.33497 -13.20579,-1.7305 -3.84192,-25.91279 -5.81372,-32.26675 -9.56629,-30.82675 -2.37363,0.91084 -7.15157,8.71774 -18.21661,29.76491 -18.75509,35.67466 -25.22824,54.2047 -29.97553,85.80797 -2.52789,16.82849 -2.78892,47.682807 -0.53983,63.810842 5.25043,37.650548 18.24879,70.033269 41.57105,103.56568 14.518,20.873793 35.12191,43.666448 42.05787,46.525648 2.30307,0.94937 3.44589,0.98747 5.23031,0.174401 1.25583,-0.572126 2.08009,-1.534017 1.83168,-2.137446 -0.24841,-0.603518 -1.88757,-4.21631 -3.64259,-8.028547 -1.75502,-3.812236 -2.87414,-6.931338 -2.48694,-6.931338 0.38721,0 4.1814,1.175466 8.43153,2.612086 17.15223,5.797819 26.1494,12.493492 35.5482,26.454817 2.64919,3.935212 5.64228,7.85021 6.6513,8.699948 2.97179,2.502705 16.3177,9.189881 26.42966,13.242879 54.21128,21.7289 108.29939,28.63582 177.97889,22.72746 40.58141,-3.44108 76.72898,-10.11197 99.27465,-18.32083 12.36333,-4.50143 14.30004,-4.73173 15.74565,-1.8719 1.00951,1.99703 1.12188,2.02269 1.96209,0.44718 1.00028,-1.87567 11.82664,-25.114969 15.00605,-32.211139 l 2.0625,-4.603392 -3.40979,0.457379 c -3.32015,0.445305 -3.49926,0.322598 -6.81242,-4.66895 -1.87143,-2.8194 -5.24382,-6.468951 -7.49419,-8.110113 -5.02281,-3.663056 -19.7403,-9.56167 -47.91553,-19.20419 -32.36926,-11.077799 -53.45289,-19.621322 -74.23239,-30.0804883 -15.66639,-7.88554676 -21.74866,-11.5679656 -36.66902,-22.2007547 -16.42909,-11.707961 -19.06109,-13.977451 -32.28524,-27.8385 -23.83065,-24.978407 -44.4319,-56.015107 -63.54931,-95.739892 -13.0644,-27.14701 -22.04902,-51.17035 -24.52675,-65.58035 -0.69889,-4.06461 -2.29318,-8.82225 -4.04599,-12.07394 -3.94219,-7.31326 -5.723,-13.91633 -5.723,-21.22035 0,-6.49782 2.56617,-23.94515 3.52188,-23.94515 0.31054,0 1.54283,2.61569 2.73841,5.81265 1.81339,4.84895 2.37183,5.61459 3.36836,4.61806 1.46499,-1.46499 5.58663,-18.36077 12.25335,-50.23001 17.81894,-85.18068 37.62858,-144.58455 62.78115,-188.26409 7.18709,-12.481 9.47752,-17.05887 8.84928,-17.6871 -1.50287,-1.50287 -14.24096,7.77661 -32.11883,23.398 -4.35588,3.8061 -8.07924,6.76074 -8.27411,6.56586 -0.75456,-0.75456 3.37957,-14.70526 6.13756,-20.71129 6.38914,-13.91354 22.63087,-33.80018 52.53873,-64.32929 35.08865,-35.8175 74.50702,-70.74348 107.32395,-95.09257 53.38812,-39.61223 127.85574,-84.36626 202.12677,-121.47547 26.79391,-13.38745 75.04735,-36.21746 76.54917,-36.21746 0.42035,0 -0.23075,0.68354 -1.447,1.51896 -1.21624,0.83543 -13.2791,9.55328 -26.80639,19.37299 -58.32328,42.33797 -96.91645,73.24956 -135.94367,108.88546 -50.65784,46.25586 -79.50574,82.43809 -112.2339,140.76838 -5.79596,10.32993 -14.15677,25.22113 -18.5796,33.09156 -14.23883,25.338 -26.12882,42.52521 -43.00073,62.15845 -10.52287,12.24507 -35.68805,39.42966 -36.11002,39.00769 -0.16327,-0.16326 2.11538,-10.01114 5.06365,-21.88415 6.00088,-24.16617 8.4652,-37.01161 7.6917,-40.09348 -2.14546,-8.54816 -16.74345,10.56273 -33.60018,43.98755 -13.8361,27.43526 -23.94713,53.06597 -32.63562,82.72888 -11.75299,40.12521 -22.99356,95.69718 -19.35673,95.69718 0.55979,0 2.50251,-2.23614 4.31716,-4.9692 4.48502,-6.75495 5.14234,-5.2659 4.52342,10.24723 -0.5282,13.23943 -1.87192,18.56043 -6.91146,27.36863 l -2.72806,4.76815 1.44349,7.00562 c 6.14814,29.83837 27.46457,73.96358 51.01117,105.593566 8.64438,11.611932 13.60525,17.189263 24.66859,27.734056 11.98231,11.42069 16.00745,14.59493 29.8733,23.558224 27.28283,17.636419 62.15848,32.387649 99.20114,41.9587541 20.11203,5.196563 29.5289,6.94604181 43.25456,8.0358897 16.81646,1.3352799 26.81168,-0.56921047 49.50769,-9.4331581 l 4.21998,-1.6481202 2.20555,2.0719961 2.20554,2.0719962 34.02272,-17.2944768 c 18.7125,-9.51196 33.73069,-17.550247 33.37377,-17.862873 -0.35693,-0.312616 -6.88716,-2.884823 -14.51163,-5.71602 -38.4108,-14.263066 -58.37022,-25.860474 -77.86791,-45.245139 -28.45821,-28.293245 -51.83411,-72.859735 -60.0159,-114.421175 -1.76747,-8.97834 -2.02168,-13.01259 -2.00059,-31.75 0.0245,-21.80728 0.70368,-29.16351 4.83022,-52.32043 4.87495,-27.35676 15.16598,-68.39379 23.88624,-95.25 8.96128,-27.59845 16.34376,-45.24605 31.96903,-76.42096 17.2526,-34.42166 23.57325,-45.18309 44.46495,-75.70515 39.49732,-57.70424 64.51729,-90.33495 94.57144,-123.3387 15.5685,-17.09647 57.890184,-60.18663 59.11323,-60.18663 1.223046,0 43.544725,43.09016 59.113227,60.18663 30.0541043,33.00375 55.07409,65.63446 94.57145,123.3387 20.89168,30.52206 27.212345,41.28349 44.464943,75.70515 23.3121,46.51144 35.35876,80.52949 48.5995,137.23786 9.36062,40.09081 12.05525,59.43254 12.08602,86.75353 0.0215,18.74919 -0.23236,22.76601 -2.0032,31.75 -8.211,41.65675 -31.51506,86.08811 -60.01332,114.421175 -19.497722,19.384665 -39.457114,30.982073 -77.867909,45.245139 -7.624472,2.831197 -14.160143,5.408806 -14.523613,5.728032 -0.36356,0.319226 14.656606,8.355661 33.378106,17.858741 l 34.039222,17.2783239 2.201124,-2.0678642 2.201125,-2.0678552 4.219978,1.6481202 c 22.695977,8.86394763 32.691237,10.768438 49.507647,9.4331581 13.72566,-1.08984789 23.14253,-2.8393267 43.25459,-8.0358897 37.04268,-9.5711051 71.91831,-24.3223351 99.20114,-41.9587541 13.8658,-8.963294 17.89099,-12.137534 29.87326,-23.558224 11.0634,-10.544793 16.02427,-16.122124 24.66859,-27.734056 23.51977,-31.593886 44.86391,-75.758596 50.99578,-105.519086 l 1.42812,-6.93116 -2.68086,-4.75033 c -5.04199,-8.93381 -6.40125,-14.33658 -6.92785,-27.53539 -0.6189,-15.51313 0.0385,-17.00218 4.52344,-10.24723 1.81466,2.73306 3.75732,4.9692 4.3171,4.9692 3.63685,0 -7.60372,-55.57197 -19.35668,-95.69718 -8.6885,-29.66291 -18.79958,-55.29362 -32.6356,-82.72888 -13.49805,-26.76491 -26.64487,-46.05986 -31.38349,-46.05986 -3.98718,0 -2.88201,8.51129 5.47495,42.16579 2.94828,11.87301 5.22695,21.72089 5.06363,21.88415 -0.42196,0.42197 -25.5871,-26.76262 -36.10994,-39.00769 -17.55928,-20.43304 -28.86362,-36.9443 -45.04565,-65.79387 -5.50036,-9.80616 -13.84283,-24.67128 -18.53896,-33.0336 -23.99263,-42.72367 -49.92487,-77.62706 -81.95669,-110.30932 -28.02961,-28.59883 -75.248038,-69.01464 -123.075794,-105.34481 -13.7006175,-10.40699 -59.971013,-44.31633 -67.94724,-49.79524 -1.216248,-0.83542 -1.867347,-1.51896 -1.446995,-1.51896 2.508697,0 86.607208,40.63834 108.74635,52.54874 80.979139,43.56516 147.455149,85.99157 193.622419,123.57393 26.68369,21.72181 57.34891,49.82795 83.63112,76.65197 29.60084,30.21108 45.55267,49.70784 52.27034,63.8863 2.89721,6.11491 7.21843,20.35271 6.41949,21.15159 -0.18737,0.18742 -3.91079,-2.77271 -8.27414,-6.57807 -17.89797,-15.60924 -30.63258,-24.87205 -32.13234,-23.37224 -0.6384,0.63837 1.87468,5.66746 8.33263,16.67483 6.79244,11.5777 17.8181,34.69621 23.94236,50.20241 15.71652,39.79325 26.72608,79.04973 40.63401,144.88734 7.03867,33.3198 9.53073,43.32247 11.12243,44.64352 0.79393,0.65885 1.64009,-0.61838 3.23484,-4.88268 1.1878,-3.17621 2.41371,-5.77493 2.72432,-5.77493 0.95563,0 3.52184,17.44733 3.52184,23.94515 0,7.30402 -1.78077,13.90709 -5.72296,21.22035 -1.75287,3.25169 -3.34717,8.00933 -4.04602,12.07394 -2.47776,14.41 -11.46238,38.43334 -24.52675,65.58035 -19.11743,39.724785 -39.71862,70.761485 -63.54928,95.739892 -13.22419,13.861049 -15.85622,16.130539 -32.28528,27.8385 -29.71129,21.1733962 -56.95306,33.895846 -114.92606,53.672966 -24.13278,8.232731 -39.06413,14.29242 -43.89085,17.812467 -2.2504,1.641162 -5.62279,5.290713 -7.49425,8.110113 -3.31318,4.991548 -3.49223,5.114255 -6.81239,4.66895 l -3.40977,-0.457379 2.06858,4.603392 c 4.2757,9.515073 13.08699,28.499879 14.45752,31.150149 l 1.42347,2.75268 1.07593,-2.12859 c 1.45128,-2.87127 3.37677,-2.64375 15.75077,1.86162 22.54563,8.20886 58.69323,14.87975 99.27465,18.32083 69.67954,5.90836 123.76759,-0.99856 177.97889,-22.72746 10.11197,-4.052998 23.45788,-10.740174 26.42968,-13.242879 1.00903,-0.849738 4.00211,-4.764736 6.65132,-8.699948 9.3988,-13.961325 18.39595,-20.656998 35.54819,-26.454817 4.25012,-1.43662 8.04429,-2.612086 8.43146,-2.612086 0.38726,0 -0.73186,3.119102 -2.48687,6.931338 -1.75502,3.812237 -3.39421,7.425029 -3.64258,8.028547 -0.24845,0.603429 0.57579,1.56532 1.83166,2.137446 1.78435,0.813069 2.92726,0.774969 5.23026,-0.174401 6.93599,-2.8592 27.53995,-25.651855 42.05793,-46.525648 23.31979,-33.528861 36.30501,-65.875995 41.57488,-103.56568 2.22653,-15.924164 1.95634,-47.821482 -0.54297,-64.100652 -3.87734,-25.25487 -9.64145,-44.15128 -20.21795,-66.28031 -6.84253,-14.31648 -19.22798,-37.50515 -23.39716,-43.80542 -7.16101,-10.82118 -9.31974,-6.9095 -14.14404,25.62941 -3.56808,24.06547 -2.14872,23.87948 -13.20577,1.7305 -18.4667,-36.99155 -21.50593,-46.85842 -30.69805,-99.6636 -6.50517,-37.36998 -14.48354,-63.9019 -27.13391,-90.23335 -21.48759,-44.72601 -54.56841,-92.0579 -111.33312,-159.29484 -8.30571,-9.83803 -15.75167,-18.66081 -16.54649,-19.6062 -2.21696,-2.6368 -0.34237,-1.34307 14.65338,10.11273 45.69711,34.90973 78.21779,62.64792 115.05557,98.13571 54.83368,52.82413 84.33301,89.15191 117.20911,144.34017 22.4028,37.60703 33.29422,60.91701 35.96014,76.96287 1.3589,8.17859 0.24399,22.4752 -1.59456,20.44852 -0.18594,-0.20496 -3.26033,-4.59853 -6.83189,-9.7635 -6.06809,-8.77508 -14.41441,-19.28192 -16.50732,-20.78032 -3.80561,-2.72455 -2.85633,0.4825 6.68029,22.56906 20.1312,46.62356 27.26887,70.65458 31.34575,105.53521 2.32053,19.85372 2.21499,32.88191 -0.42795,52.864535 -7.41949,56.095367 -38.23291,124.376679 -72.56825,160.808152 -3.89864,4.136712 -12.72299,12.554398 -19.60961,18.706028 -12.96348,11.579807 -16.54577,15.508668 -16.54577,18.146515 0,2.19432 4.01695,2.83809 10.82057,1.73417 3.14889,-0.51095 6.1087,-0.93202 6.57744,-0.93568 1.29004,-0.01 -5.55401,6.80496 -11.3521,11.30443 -9.93292,7.70809 -18.084,10.28995 -39.04347,12.3673 -15.86069,1.57193 -15.36253,1.45549 -38.99893,9.11573 -37.94545,12.29754 -63.56735,18.22093 -94.80282,21.91672 -15.12284,1.78936 -21.32375,2.01447 -56.34507,2.04595 -42.35334,0.0385 -45.33874,-0.1482 -87.20071,-5.43971 -36.9918,-4.67593 -45.59748,-4.23063 -54.18196,2.80374 -2.09318,1.71513 -4.01446,3.11848 -4.26962,3.11848 -0.25516,0 -1.88854,-1.50924 -3.62969,-3.35387 l -3.16588,-3.35388 0.43412,3.13029 c 0.38279,2.76072 3.99612,42.00471 3.99612,43.40153 0,0.29935 1.16894,-0.28816 2.5976,-1.30541 1.42866,-1.01735 2.99702,-1.84964 3.48534,-1.84964 0.48824,0 3.31453,2.7372 6.28051,6.08276 8.71578,9.83087 14.33464,11.98978 34.1436,13.1191 84.51188,4.81795 135.50981,14.72029 236.91368,46.00182 l 26.29034,8.1102 6.3526,-0.98568 c 9.072,-1.40755 17.95744,-0.64117 23.85167,2.05731 5.11542,2.3419 21.5401,16.94511 19.73536,17.54666 -0.53689,0.17896 -4.04522,-0.30936 -7.79637,-1.08504 -8.72142,-1.80367 -8.68537,-1.80734 -7.32826,0.75001 1.70761,3.21793 6.96684,7.54514 31.10776,25.59515 37.92765,28.35821 55.71624,43.42497 74.27532,62.91098 66.15243,69.45603 99.23611,167.67471 99.30131,294.80521 0.0125,24.46431 -0.92048,42.07152 -2.74874,51.87252 -0.41284,2.2132 -0.54244,4.22552 -0.28799,4.47183 0.9144,0.88507 6.33998,-6.38023 11.97905,-16.04072 3.1598,-5.41324 6.01363,-9.85413 6.34177,-9.86871 0.87997,-0.0394 2.53365,8.40078 2.53365,12.93039 0,9.9424 -6.58593,29.36625 -16.89431,49.82613 -17.28649,34.3103 -36.77714,58.65826 -70.3064,87.82757 -48.85699,42.50404 -84.13598,65.14081 -121.63381,78.04633 -9.33468,3.21266 -42.19423,11.93174 -44.93054,11.92199 -0.86709,0 6.67403,-4.16256 16.75801,-9.24336 29.82309,-15.02634 48.52974,-27.75889 68.8662,-46.87347 28.034,-26.34955 53.50403,-59.88247 64.36459,-84.74022 5.86185,-13.41656 7.86845,-22.49608 8.99356,-40.69366 1.10213,-17.82597 2.79311,-29.29515 5.93404,-40.24648 3.99754,-13.93816 15.35546,-42.62577 16.39248,-41.40352 0.33127,0.39039 2.30272,7.75299 4.38105,16.36126 4.40288,18.23604 5.69282,21.72514 7.87668,21.30461 2.44708,-0.47124 3.81895,-7.00306 4.93708,-23.50519 1.61496,-23.83612 -0.86002,-62.56307 -6.06085,-94.83815 -11.75117,-72.92323 -44.58433,-150.27715 -82.56673,-194.52466 -10.12235,-11.79204 -27.73751,-29.14829 -40.35049,-39.75745 -28.58994,-24.04798 -61.10078,-46.17559 -63.83128,-43.44509 -0.48797,0.48797 0.11323,3.77369 1.50307,8.21565 1.27394,4.07142 2.14049,7.57832 1.92575,7.79315 -0.5994,0.59931 -13.64177,-7.64495 -19.44513,-12.29163 -6.19921,-4.96356 -9.53439,-11.05518 -10.22547,-18.67652 l -0.47589,-5.24885 -12.63579,-4.263 c -92.29734,-31.13879 -134.6548,-39.79518 -202.24134,-41.33117 -25.39785,-0.57722 -41.20765,0.29917 -49.27752,2.73166 -5.99145,1.806 -11.71674,6.28284 -17.82418,13.93745 -2.81073,3.52273 -5.66403,6.23016 -6.56573,6.23016 -0.8771,0 -2.55225,-1.01922 -3.72253,-2.26499 l -2.12787,-2.26498 -8.28488,28.87238 c -4.5567,15.87983 -8.29766,29.17834 -8.31322,29.55227 -0.0152,0.37394 2.20551,-0.80332 4.93592,-2.6162 7.93643,-5.26951 9.38342,-4.07777 21.89721,18.0349 14.46915,25.56778 23.4129,36.08544 39.16761,46.05986 74.89781,47.41858 110.60395,78.45497 161.58703,140.45387 17.10055,20.79545 18.90109,22.6246 30.77595,31.26445 16.69084,12.14389 25.39106,23.17741 30.3251,38.45775 2.09737,6.4956 4.90774,20.83131 4.47102,22.80732 -0.18558,0.83963 -3.37006,-1.31776 -9.227,-6.25099 -4.91901,-4.14324 -9.50308,-7.55105 -10.18674,-7.57287 -1.94569,-0.0626 -0.73991,7.75961 3.02716,19.63626 9.50971,29.98166 12.28028,59.16018 8.8807,93.52611 -5.56117,56.21701 -26.96469,106.40669 -63.51932,148.9483 -27.73805,32.28116 -60.47588,54.36521 -108.13138,72.94254 -9.34613,3.64338 -21.21884,8.26895 -26.38381,10.27913 -11.78229,4.5856 -16.44999,7.58315 -16.8258,10.80555 -0.40175,3.44484 2.76753,3.95874 13.64257,2.21222 4.92152,-0.79044 9.05144,-1.33395 9.17754,-1.20775 0.58438,0.58429 -13.37328,7.76542 -18.96262,9.75619 -8.54066,3.04192 -20.88354,4.52263 -31.56335,3.78657 -26.05235,-1.79553 -57.65549,-8.33379 -87.35391,-18.07246 -52.053636,-17.06925 -90.64241,-42.54464 -117.879261,-77.82122 -7.930345,-10.27126 -24.587917,-36.07999 -23.230805,-35.99315 0.363649,0.0233 2.472207,2.31972 4.685764,5.10317 19.7706809,24.86079 40.252384,41.24289 64.209683,51.35746 27.467955,11.59671 70.108659,20.15598 96.181309,19.30642 10.40246,-0.33897 13.07724,-0.77649 22.95409,-3.75437 25.27837,-7.62161 45.17444,-10.02478 64.03609,-7.73457 13.36111,1.62229 13.2884,1.53545 4.92831,5.8885 -4.0327,2.0998 -8.11932,4.53015 -9.08139,5.40081 -2.06536,1.86914 -2.3343,6.50357 -0.42009,7.23811 5.01346,1.92387 47.30196,-16.77965 75.1392,-33.23286 59.3531,-35.08071 94.98259,-89.41892 104.09663,-158.75699 4.32149,-32.87663 2.87306,-74.70847 -3.47596,-100.38867 -3.67405,-14.8607 -5.2197,-15.36423 -11.06188,-3.6034 -5.096,10.25864 -3.94245,10.8585 -12.91277,-6.71473 -9.63634,-18.87819 -11.10033,-23.53346 -11.58374,-36.83429 -0.23593,-6.49149 0.0215,-13.4299 0.61452,-16.54578 l 1.02092,-5.3662 -3.48892,-3.13028 c -1.91895,-1.72165 -10.30096,-9.36848 -18.62679,-16.99296 -40.8839,-37.43996 -69.91207,-58.88087 -113.44821,-83.79576 -19.8933,-11.38457 -32.82226,-18.02381 -40.84625,-20.97522 -6.60793,-2.43053 -8.20733,-2.68614 -14.15728,-2.26265 -7.51536,0.53483 -14.8116,2.85258 -28.61972,9.09141 -30.06939,13.58605 -29.11269,13.3942 -32.98521,6.61366 l -2.61289,-4.57513 -1.350581,2.11562 c -5.746124,9.00126 -12.241459,21.81958 -12.241459,24.15817 0,1.08022 4.230889,25.35117 9.402025,53.93539 5.171135,28.5843 9.737145,55.60239 10.146585,60.04023 1.2666,13.72629 -1.49914,27.96755 -7.062631,36.3669 -7.809427,11.79016 -31.706446,23.82243 -111.62934,56.20609 l -21.780591,8.82525 3.075726,-3.78219 c 1.691604,-2.0802 9.480551,-11.63042 17.308759,-21.22268 39.85618,-48.83776 44.454475,-55.81319 44.513235,-67.52429 0.04651,-9.24748 -2.058831,-14.147 -13.209879,-30.74402 -18.97603717,-28.24373 -30.094083,-43.24082 -31.692673,-42.75026 -0.811906,0.24917 -5.903265,2.45083 -11.31418,4.89263 -12.66682,5.71625 -20.998378,8.52903 -32.644368,11.02092 -13.612076,2.91259 -40.0499,2.91259 -53.661978,0 -11.64599,-2.49189 -19.97755,-5.30467 -32.64437,-11.02092 -5.41091,-2.4418 -10.50227,-4.64346 -11.31418,-4.89263 -1.59857,-0.49056 -12.71661,14.50653 -31.69268,42.75026 -11.15103,16.59702 -13.2562,21.49654 -13.20984,30.74402 0.0587,11.7111 4.657,18.68653 44.51321,67.52429 7.82821,9.59226 15.61715,19.14248 17.30876,21.22268 l 3.07572,3.78219 -21.78062,-8.82525 c -79.92289,-32.38366 -103.81986,-44.41593 -111.62931,-56.20609 -5.56352,-8.39935 -8.32925,-22.64061 -7.06266,-36.3669 0.4095,-4.43784 4.97547,-31.45593 10.14659,-60.04023 5.17113,-28.58422 9.40205,-52.85517 9.40205,-53.93539 0,-2.33859 -6.49534,-15.15691 -12.24149,-24.15817 l -1.35052,-2.11562 -2.61293,4.57513 c -3.84426,6.731 -3.7822,6.74289 -32.09084,-6.17238 -14.55232,-6.63924 -21.81401,-8.98472 -29.51408,-9.53269 -5.94993,-0.42349 -7.54939,-0.16788 -14.15731,2.26265 -8.02394,2.95141 -20.95288,9.59065 -40.84622,20.97522 -43.53615,24.91489 -72.56433,46.3558 -113.44822,83.79576 -8.32582,7.62448 -16.6967,15.27131 -18.60197,16.99296 l -3.46412,3.13028 1.00601,6.24751 c 0.5533,3.43616 0.81513,10.88175 0.58184,16.54578 -0.5076,12.32418 -2.19095,17.54791 -11.58578,35.95298 -8.97028,17.57323 -7.81675,16.97337 -12.91274,6.71473 -5.84216,-11.76083 -7.38786,-11.2573 -11.0619,3.6034 -6.34898,25.6802 -7.79741,67.51204 -3.47597,100.38867 9.11528,69.34702 44.69306,123.60392 104.09665,158.74957 27.77466,16.43263 70.12105,35.16594 75.13924,33.24028 1.9142,-0.73454 1.64521,-5.36897 -0.42011,-7.23811 -0.96205,-0.87066 -5.04869,-3.30101 -9.08142,-5.40081 -8.36012,-4.35305 -8.43277,-4.26621 4.92834,-5.8885 17.9565,-2.18029 39.6735,0.24872 61.1006,6.83394 13.47077,4.14002 17.36801,4.80212 28.4589,4.83494 26.4901,0.0787 67.48198,-8.45453 93.61198,-19.48636 23.95729,-10.11457 44.43902,-26.49667 64.20967,-51.35746 8.37744,-10.53429 5.63254,-4.93172 -7.33809,14.97777 -25.05664,38.46115 -56.9011,64.38874 -103.59681,84.34813 -41.10132,17.56813 -105.79591,30.81494 -131.40318,26.90594 z m 281.6902,-497.07464 c 0,-1.38099 -3.44939,-17.62733 -5.38015,-25.33981 -7.04081,-28.12522 -18.31063,-49.95178 -34.0826,-66.00861 -26.3901,-26.86667 -60.04864,-39.94186 -140.43955,-54.55625 -8.38935,-1.52507 -15.44968,-2.57658 -15.68962,-2.33662 -0.49274,0.49271 30.18379,41.89149 41.18179,55.57592 37.87293,47.1238 64.68324,67.52867 106.56153,81.10211 4.89702,1.58724 45.60991,12.21562 47.17782,12.31614 0.36893,0.0233 0.67078,-0.31517 0.67078,-0.75288 z m 51.87324,-4.02259 c 33.433378,-8.13479 51.9760946,-15.15897 70.607801,-26.747 19.221809,-11.95518 40.504863,-32.4985 64.124182,-61.89578 11.472572,-14.27901 41.670847,-55.08894 41.149877,-55.60991 -0.26115,-0.26115 -7.44238,0.81674 -15.95826,2.3953 -81.668968,15.13875 -113.6898733,27.59933 -140.133958,54.53156 -18.582963,18.92604 -28.925593,41.29092 -37.629655,81.37007 -2.249063,10.35649 -2.266324,11.02029 -0.270904,10.43815 0.860828,-0.25114 9.01074,-2.2682 18.110917,-4.48239 z"
         id="path427" />
      <path
         style="display:inline;opacity:1;mix-blend-mode:lighten;fill:#000000;fill-opacity:0.5;stroke-width:0.894366"
         d="m -97.003477,549.02418 c -17.864343,-2.17063 -30.621223,-5.75185 -47.735103,-13.40056 -5.941,-2.65519 -11.21419,-4.7625 -11.71821,-4.6829 -0.50403,0.0796 -17.015,-7.81685 -36.69106,-17.54756 -19.67606,-9.7307 -41.95888,-20.68597 -49.51737,-24.345 -7.5585,-3.65912 -13.528,-6.86766 -13.26555,-7.13007 0.56055,-0.56059 -3.35525,-9.06047 -6.53667,-14.18903 -1.22059,-1.96761 -2.24113,-3.7787 -2.26787,-4.02465 -0.0267,-0.24595 -1.28903,-2.86197 -2.80507,-5.81338 -1.51605,-2.95141 -4.86774,-9.99454 -7.44819,-15.65141 -2.58046,-5.65687 -5.89218,-12.90123 -7.35938,-16.09859 -18.20108,-39.66425 -28.46274,-65.22327 -32.9129,-81.97734 -3.38131,-12.72997 -3.63756,-23.50404 -0.73913,-31.07807 1.68048,-4.39134 2.57376,-5.41208 7.37852,-8.43119 6.24929,-3.92671 14.65311,-6.38434 30.956,-9.05277 14.55539,-2.38242 20.88564,-4.7033 23.2463,-8.52287 2.32276,-3.7583 2.2641,-6.84029 -0.43365,-22.78076 -3.73407,-22.06392 -5.03594,-36.13642 -5.06448,-54.74407 -0.10773,-70.2564 25.4849,-119.176982 102.57855,-196.080048 11.90032,-11.8709231 30.7465,-30.018008 41.88046,-40.326911 11.13397,-10.308904 20.243535,-19.031819 20.243535,-19.384244 0,-0.352425 -9.961005,-8.185303 -22.135565,-17.406389 -54.66415,-41.402948 -88.92227,-70.987058 -112.24665,-96.932208 -12.03172,-13.38364 -15.50461,-17.95697 -23.77411,-31.30738 -8.84172,-14.27422 -10.16086,-16.99575 -15.16438,-31.28565 -4.75438,-13.57838 -5.73881,-17.54675 -7.4324,-29.96127 -4.9643,-36.38942 1.33566,-77.26992 19.15807,-124.31691 20.23327,-53.41107 64.70938,-143.68802 151.1331,-306.76762 17.891078,-33.76014 19.830958,-37.11947 21.429101,-37.10882 1.321963,0.009 0.211876,-1.98162 25.683963,46.05248 36.453206,68.74177 61.3229373,116.99717 89.882824,174.40142 59.785433,120.16645 75.430582,164.34791 77.128802,217.80969 0.41749,13.1406 0.18093,17.99754 -1.45934,29.96127 -1.69258,12.34537 -2.69866,16.39722 -7.432,29.92976 -5.001654,14.29975 -6.311543,17.00307 -15.166931,31.30282 -8.268058,13.35122 -11.765209,17.96022 -23.796224,31.36152 -23.216317,25.86069 -58.0703063,55.91643 -112.431497,96.953385 -12.297536,9.283352 -22.443674,16.927974 -22.547062,16.988048 -0.1033,0.0601 9.702174,9.335386 21.789981,20.611807 89.764053,83.738367 124.228456,129.52232 137.524373,182.69346 4.279811,17.11522 6.026866,32.24763 6.011125,52.06786 -0.0152,19.2752 -0.965021,30.07673 -4.623069,52.5763 -3.152641,19.39183 -3.231881,21.8593 -0.826931,25.75069 2.322938,3.75848 7.869887,5.90013 20.527225,7.92542 16.549,2.64786 27.63538,5.80721 33.63908,9.58609 4.80248,3.02287 5.69882,4.04781 7.37853,8.43709 2.8905,7.55328 2.64222,18.65031 -0.69233,30.95053 -5.70883,21.05803 -22.02976,60.15838 -45.28436,108.48868 -2.84024,5.90282 -5.202887,10.93363 -5.250288,11.17958 -0.0474,0.24595 -1.084956,2.05704 -2.305587,4.02465 -3.163821,5.10021 -7.098406,13.62728 -6.54381,14.18188 0.258472,0.25847 -5.710975,3.46826 -13.265508,7.13275 -7.554622,3.66448 -29.83418,14.62172 -49.510238,24.3493 -19.6760571,9.72757 -36.187042,17.62268 -36.691107,17.54478 -0.503975,-0.0778 -5.777159,2.03066 -11.718165,4.68585 -13.127508,5.86713 -25.025441,9.75879 -35.701044,11.67747 -7.834201,1.408 -30.861985,2.4782 -37.07631,1.72309 z m -3.577463,-65.3593 c 0,-2.99613 -6.50714,-29.58448 -9.58287,-39.15554 -10.96573,-34.12391 -30.00295,-57.6377 -60.38536,-74.58486 -11.43456,-6.37818 -31.65164,-13.8854 -50.77122,-18.85298 -22.03009,-5.72376 -73.7168,-16.07516 -74.80966,-14.98233 -0.5285,0.52848 1.22156,2.97654 20.5803,28.78777 43.29564,57.72669 66.28535,80.18754 98.77901,96.50686 15.46076,7.76489 32.38812,13.39358 60.98557,20.27895 16.704706,4.02196 15.20423,3.8244 15.20423,2.00213 z m 45.612676,-1.60047 c 41.503692,-9.21984 69.933449,-21.38779 92.566907,-39.61873 20.642599,-16.62734 38.749849,-37.15224 71.982707,-81.59339 9.01208,-12.05158 16.78395,-22.4248 17.27084,-23.05157 0.4868,-0.62677 0.64457,-1.38019 0.3505,-1.67426 -0.29415,-0.29406 -7.49523,0.75396 -16.00244,2.32893 -70.096407,12.97717 -101.6144099,23.57639 -126.807455,42.64428 -19.769161,14.96275 -34.28079,35.99672 -42.798108,62.03432 -3.022422,9.23952 -8.555687,31.19326 -9.574638,37.98811 -0.581785,3.87985 -0.492707,4.19816 1.045246,3.73425 0.924685,-0.27895 6.309575,-1.53527 11.966441,-2.79194 z M -115.3523,293.80246 c 3.69588,-7.14706 3.21006,-18.91459 -2.19003,-53.0429 -5.31075,-33.56377 -6.38908,-43.77904 -6.91274,-65.48826 -0.6959,-28.85208 1.59368,-50.0118 10.9356,-101.063391 7.66391,-41.881651 17.801286,-104.10085 17.078817,-104.823293 -0.171271,-0.171333 -5.562417,5.836608 -11.980307,13.350966 -58.16661,68.104147 -83.25169,111.386376 -90.59494,156.313878 -1.73725,10.62883 -1.91328,14.21497 -1.47078,29.96127 0.56401,20.06985 2.76326,34.70275 8.13237,54.10916 5.05159,18.25876 15.53518,47.23166 20.70203,57.21297 6.41839,12.39895 15.35091,15.71562 43.09941,16.00271 l 11.82736,0.12235 z m 100.158382,0.37393 c 14.0374356,-3.82511 16.9603139,-8.02228 29.241125,-41.9896 12.216596,-33.78951 16.666605,-54.98993 17.458655,-83.17606 0.437167,-15.55911 0.253106,-19.45881 -1.414529,-29.96127 C 24.701613,105.10683 7.3016287,69.588418 -24.895199,26.806498 -37.854118,9.5871753 -71.794155,-31.345356 -72.515104,-30.624372 c -0.585452,0.585416 9.815849,64.906699 16.161735,99.944123 15.388287,84.962919 15.780467,104.330149 3.640786,179.797309 -4.138769,25.72913 -4.356279,38.00135 -0.79536,44.88735 l 1.404603,2.71637 15.784133,-0.5444 c 10.199084,-0.35185 17.673929,-1.05947 21.125289,-1.99999 z M -98.725133,-87.424025 c -6.486927,-53.355295 -11.141027,-100.744565 -14.121957,-143.794135 -1.95946,-28.29731 -2.21552,-111.75007 -0.43081,-140.41551 2.0235,-32.50154 4.60232,-70.64963 5.98554,-88.54225 7.24535,-93.72746 10.149898,-130.26026 14.327751,-180.2148 2.673976,-31.9736 5.098782,-60.74983 5.388378,-63.94719 0.338607,-3.73973 0.229852,-5.33485 -0.305068,-4.47183 -1.664327,2.68528 -48.615161,144.04246 -69.957091,210.62325 -13.94782,43.51336 -28.72249,96.53494 -34.88421,125.18837 -14.47019,67.28967 -10.45266,125.55076 12.39785,179.79052 12.4968,29.6634 31.76938,60.81908 64.93534,104.973055 9.37439,12.480255 17.446132,23.248318 17.93714,23.929047 0.491096,0.68072 1.023959,0.844219 1.18423,0.363327 0.16036,-0.480892 -0.945435,-11.047722 -2.457093,-23.481854 z m 48.459447,-5.106787 C 6.5164645,-168.50573 27.460823,-216.69579 31.778286,-281.30267 c 3.385803,-50.66664 -5.935729,-97.83405 -42.77387,-216.43664 -12.871183,-41.43952 -70.151138,-213.42314 -70.622111,-212.04352 -0.14605,0.42795 0.371699,7.96573 1.150692,16.75059 8.158051,92.00478 20.597791,252.55879 24.226682,312.68251 1.956605,32.41651 2.634982,93.66326 1.354697,122.30058 -2.194328,49.0828 -6.920785,101.692 -15.325592,170.588393 -1.454418,11.922027 -2.644373,22.355838 -2.644373,23.186257 0,1.738416 2.646698,-1.572117 22.589903,-28.256312 z"
         id="path425" />
      <path
         style="display:none;fill:#000000;fill-opacity:0.5;stroke-width:0.894366"
         d="m -99.948,548.51511 c -12.40057,-1.27349 -27.26314,-5.47746 -42.2766,-11.95804 -7.55239,-3.26005 -14.15104,-5.66813 -14.66369,-5.35135 -0.51265,0.31687 -0.93209,0.13559 -0.93209,-0.40282 0,-0.53841 -1.71048,-1.72792 -3.80106,-2.64339 -2.09058,-0.91547 -23.86941,-11.56648 -48.39739,-23.66896 -24.52799,-12.10247 -45.02016,-22.00445 -45.53815,-22.00445 -0.518,0 -0.70589,-0.23593 -0.41756,-0.52427 0.68165,-0.6816 -4.17266,-11.49404 -6.47363,-14.41934 -0.97758,-1.24272 -1.58611,-2.56915 -1.35228,-2.94747 0.23384,-0.37841 -0.17411,-1.1853 -0.90655,-1.79311 -0.73243,-0.6079 -1.3317,-1.4097 -1.3317,-1.78194 0,-0.37214 -5.07221,-11.6925 -11.27158,-25.15629 -29.09226,-63.18268 -39.26325,-90.58302 -40.29382,-108.55012 -0.41081,-7.16218 -0.21637,-8.6394 1.76418,-13.40297 1.94683,-4.68246 2.90284,-5.78164 7.62586,-8.76801 6.54764,-4.13994 13.39069,-6.17605 30.99578,-9.22253 15.44446,-2.67263 21.41373,-4.848 23.29723,-8.49031 1.8628,-3.60224 1.59597,-11.0735 -0.91338,-25.57521 -5.23295,-30.24147 -6.25914,-61.55833 -2.78329,-84.93993 9.37116,-63.0386 45.37068,-113.624398 148.74851,-209.01829 l 15.379697,-14.191875 -20.213037,-15.322211 c -31.2962,-23.723601 -68.02612,-53.510984 -85.22958,-69.119804 -8.59227,-7.79584 -22.00073,-21.21738 -29.79658,-29.82565 -11.98062,-13.22915 -15.64643,-18.00446 -23.68663,-30.85564 -8.45526,-13.51462 -10.14106,-16.92832 -15.17003,-30.71888 -5.01838,-13.76154 -5.90623,-17.22323 -7.85724,-30.63504 -1.85886,-12.77832 -2.12553,-17.23256 -1.72156,-28.75648 2.27083,-64.78013 23.41697,-117.1958 130.16303,-322.63962 40.87781,-78.67357 61.224553,-116.69966 62.580144,-116.95626 0.752609,-0.14246 2.022609,1.33166 3.081807,3.57704 0.990779,2.10064 12.105426,23.3389 24.699086,47.19612 121.494558,230.15687 155.118883,304.90452 162.537563,361.32396 3.05927,23.26579 3.21802,38.12404 0.59967,56.123 -1.94659,13.38165 -2.90928,17.21304 -7.588249,30.202 -4.668503,12.96002 -6.571714,16.84887 -14.776004,30.192 -8.134082,13.22909 -11.397446,17.51817 -23.951039,31.47954 -23.565477,26.20797 -55.4857665,53.75794 -112.833604,97.385148 l -22.831381,17.368843 16.294458,15.074705 C 12.774077,35.373364 48.053516,75.84764 68.553017,115.34876 c 22.684079,43.71072 27.581897,88.83123 16.455623,151.59508 -1.701442,9.59771 -1.721029,17.25894 -0.05277,20.4859 1.879063,3.63354 7.828209,5.809 23.29726,8.51911 17.81622,3.12125 24.55491,5.12132 31.01278,9.20455 4.70454,2.97457 5.66348,4.07831 7.60891,8.75719 6.60006,15.87446 -2.49555,44.06301 -41.19961,127.68419 -4.73093,10.22127 -8.601661,18.9256 -8.601661,19.343 0,0.4174 -0.599226,1.25623 -1.331712,1.86413 -0.732396,0.60781 -1.140406,1.4147 -0.906529,1.79311 0.233787,0.37832 -0.37474,1.70475 -1.352282,2.94747 -2.02726,2.5773 -7.35017,14.04925 -6.518767,14.04925 0.613177,0 -86.04822949,42.81116 -93.4136039,46.14679 -2.5824825,1.16956 -4.6954231,2.52131 -4.6954231,3.004 0,0.48269 -0.527855,0.67507 -1.172961,0.4275 -0.645106,-0.24756 -5.689243,1.56228 -11.209271,4.02179 -19.145609,8.53073 -30.232352,11.67014 -47.411518,13.42542 -10.55531,1.07852 -17.760414,1.05312 -29.009932,-0.10213 z m -0.63294,-64.95291 c 0,-1.88827 -2.91644,-15.54077 -5.45367,-25.53031 -8.6639,-34.11032 -22.70796,-57.45283 -45.49221,-75.61258 -17.26694,-13.76215 -37.31644,-22.7771 -69.79357,-31.38143 -21.90533,-5.80355 -73.63039,-16.12793 -74.82343,-14.93494 -0.58816,0.58814 1.14984,3.04353 19.73425,27.87963 59.72822,79.8204 85.06423,98.86191 154.81102,116.34963 10.32993,2.59 19.28477,4.73791 19.89965,4.77305 0.61488,0.0349 1.11796,-0.65923 1.11796,-1.54305 z m 51.267665,-2.83505 c 70.091572,-16.72205 96.616597,-36.3423 155.411515,-114.95584 19.30749,-25.81562 21.64027,-29.10894 21.04247,-29.70683 -1.24567,-1.24558 -54.550971,9.47143 -76.573756,15.39509 -39.403273,10.59878 -64.172746,23.99424 -82.821714,44.79022 -16.787165,18.72007 -26.173896,39.86512 -34.292953,77.25079 -2.383039,10.97343 -2.369802,11.82031 0.17628,11.25945 1.106778,-0.24381 8.782944,-2.05856 17.058158,-4.03288 z M -114.78607,293.99842 c 3.51226,-9.04706 3.14978,-18.69673 -1.87307,-49.86092 -7.07533,-43.89845 -8.84922,-66.3864 -7.24088,-91.79301 1.55709,-24.59651 3.0463,-34.67691 15.17686,-102.731652 2.49886,-14.019191 6.3601,-37.362151 8.58055,-51.873243 2.220439,-14.511092 4.262904,-27.35963 4.538726,-28.552312 0.453444,-1.960307 0.354974,-2.046837 -1.025301,-0.90127 -1.795083,1.48979 -25.464575,29.5426609 -35.793345,42.421893 -24.4243,30.455585 -42.9022,59.175743 -53.5135,83.176061 -22.37084,50.597693 -20.34631,100.716193 6.87745,170.255133 9.32834,23.8278 12.66224,27.77285 25.71003,30.42312 7.79297,1.58294 8.62097,1.64546 23.49929,1.77389 l 14.10836,0.12181 z m 100.511471,0.42106 C -2.0545156,290.95927 0.92739096,287.40837 9.3003584,266.34604 37.27533,195.97418 39.498366,144.2189 16.727265,93.436784 2.5416326,61.80135 -19.942019,29.280226 -60.148433,-17.758466 c -7.0756,-8.277986 -12.991743,-14.918655 -13.146826,-14.757043 -0.314012,0.32706 8.985966,59.424591 12.431691,78.998065 1.212313,6.88662 4.214611,23.790142 6.671704,37.563382 12.380443,69.396832 12.713237,91.363712 2.370786,156.514092 -5.577089,35.13196 -5.971505,44.23652 -2.320255,53.56172 l 1.01126,2.58275 17.191866,-0.50934 c 10.595736,-0.31392 18.907529,-0.99525 21.663608,-1.77568 z M -95.518382,-64.642451 c -0.909481,-5.731555 -7.566608,-63.073069 -9.941868,-85.635569 -9.63018,-91.47395 -11.44252,-153.89398 -6.7386,-232.08804 3.84282,-63.88049 19.552188,-265.83752 24.627359,-316.60565 1.582939,-15.83415 1.574174,-16.57525 -0.142294,-12.07395 -2.892827,7.5862 -50.144075,149.30114 -60.684445,182.00353 -31.12049,96.55379 -45.06284,148.69631 -50.69851,189.60565 -1.7427,12.65025 -2.02908,18.52372 -2.00592,41.14085 0.0249,24.28758 0.22191,27.62733 2.48014,42.03521 6.85954,43.76526 22.29519,80.81617 52.7227,126.55282 10.28324,15.45714 49.282798,68.419023 50.381617,68.419023 0.292636,0 0.292547,-1.509244 -1.79e-4,-3.353874 z m 29.953399,-6.484155 C -4.0663924,-150.53104 19.814439,-196.59531 29.253669,-254.0245 c 2.674424,-16.27182 2.795163,-18.13161 2.845248,-43.82395 0.04472,-23.13404 -0.226901,-28.86431 -1.973777,-41.58803 -5.755158,-41.9193 -21.6822106,-100.7553 -54.664381,-201.93592 -15.7878,-48.43284 -57.083194,-172.03047 -57.675086,-172.62235 -0.690003,-0.69004 -0.620421,0.56973 0.854657,15.47022 2.786756,28.15172 12.195489,143.86864 18.325117,225.38029 6.728496,89.47554 8.117715,115.37041 8.492723,158.30283 0.453354,51.89565 -1.387967,88.53636 -7.618212,151.59508 -2.431781,24.61282 -9.722119,88.728672 -11.237264,98.827471 -0.64305,4.286268 -0.760301,4.386678 7.832323,-6.707747 z"
         id="path423" />
    </g>
  </g>
</svg>
