<?xml version="1.0" encoding="UTF-8" standalone="no"?>
<!DOCTYPE svg PUBLIC "-//W3C//DTD SVG 1.1//EN" "http://www.w3.org/Graphics/SVG/1.1/DTD/svg11.dtd">
<svg xmlns="http://www.w3.org/2000/svg" version="1.1" viewBox="0.00 0.00 1448.00 1448.00">
<g stroke-width="2.00" fill="none" stroke-linecap="butt">
<path stroke="#b3a180" vector-effect="non-scaling-stroke" d="
  M 591.9400 844.2600
  A 100.12 71.49 90.0 0 0 663.4300 744.1400
  A 100.12 71.49 90.0 0 0 591.9400 644.0200
  A 100.12 71.49 90.0 0 0 520.4500 744.1400
  A 100.12 71.49 90.0 0 0 591.9400 844.2600"
/>
<path stroke="#b3a180" vector-effect="non-scaling-stroke" d="
  M 992.8100 844.2600
  A 100.12 71.50 90.0 0 0 1064.3100 744.1400
  A 100.12 71.50 90.0 0 0 992.8100 644.0200
  A 100.12 71.50 90.0 0 0 921.3100 744.1400
  A 100.12 71.50 90.0 0 0 992.8100 844.2600"
/>
<path stroke="#de8998" vector-effect="non-scaling-stroke" d="
  M 892.53 973.21
  A 100.15 100.15 0.0 0 0 792.38 873.06
  A 100.15 100.15 0.0 0 0 692.23 973.21
  A 100.15 100.15 0.0 0 0 792.38 1073.36
  A 100.15 100.15 0.0 0 0 892.53 973.21"
/>
<path stroke="#ed95a2" vector-effect="non-scaling-stroke" d="
  M 512.88 1118.22
  Q 545.68 1178.85 596.05 1226.19
  C 646.44 1273.55 709.66 1302.62 779.27 1302.49
  C 888.44 1302.29 975.96 1228.26 1030.64 1139.90
  Q 1036.96 1129.68 1042.49 1119.82"
/>
<path stroke="#ffbcc9" vector-effect="non-scaling-stroke" d="
  M 1042.49 1119.82
  Q 1078.61 1136.05 1116.08 1127.75
  C 1174.58 1114.79 1212.98 1058.30 1204.13 999.07
  C 1193.81 930.00 1123.78 886.12 1056.99 906.95
  C 1008.41 922.10 975.80 967.61 976.67 1018.28
  C 977.20 1049.64 990.41 1078.38 1013.24 1100.05"
/>
<path stroke="#ed95a2" vector-effect="non-scaling-stroke" d="
  M 1013.24 1100.05
  Q 940.84 1146.05 859.75 1164.48
  Q 767.54 1185.43 675.25 1159.03
  Q 602.16 1138.12 540.49 1098.53"
/>
<path stroke="#ffbcc9" vector-effect="non-scaling-stroke" d="
  M 540.49 1098.53
  C 581.51 1057.95 587.39 994.98 553.16 948.39
  C 524.11 908.84 473.00 892.31 426.44 907.15
  C 384.14 920.62 353.23 957.62 347.63 1001.54
  C 340.36 1058.47 376.53 1111.97 431.23 1126.62
  Q 472.90 1137.79 512.88 1118.22"
/>
<path stroke="#ed526c" vector-effect="non-scaling-stroke" d="
  M 540.49 1098.53
  C 535.39 1095.11 528.10 1088.87 522.57 1087.89
  C 513.43 1086.27 505.08 1094.50 506.14 1103.51
  Q 506.50 1106.64 508.91 1111.09
  Q 510.82 1114.63 512.88 1118.22"
/>
<path stroke="#ed526c" vector-effect="non-scaling-stroke" d="
  M 1042.49 1119.82
  Q 1045.50 1114.22 1048.16 1109.20
  C 1054.00 1098.20 1045.21 1085.66 1032.88 1088.12
  Q 1029.95 1088.71 1026.11 1091.40
  Q 1019.66 1095.92 1013.24 1100.05"
/>
</g>
<path fill="#0027ff" d="
  M 205.80 181.85
  Q 166.12 179.91 138.80 152.46
  C 120.56 134.12 112.87 107.37 117.94 82.18
  C 123.01 56.98 140.94 35.95 163.73 24.43
  C 203.10 4.53 252.84 10.74 282.41 44.59
  Q 309.56 75.69 301.48 118.21
  Q 301.39 118.69 301.84 118.85
  L 627.43 228.97
  Q 627.93 229.14 628.40 228.91
  L 753.61 168.63
  A 0.74 0.73 72.2 0 1 754.65 169.17
  L 782.71 335.24
  A 2.19 2.18 -27.2 0 1 782.09 337.16
  Q 779.50 339.78 776.44 341.95
  Q 522.10 522.39 268.08 702.39
  A 1.48 1.48 0.0 0 1 266.57 702.51
  Q 249.57 694.19 232.68 685.34
  Q 169.93 652.47 108.02 619.32
  Q 106.96 618.76 108.04 618.24
  L 213.53 567.71
  A 0.90 0.89 -13.5 0 0 214.04 566.89
  C 213.10 457.17 210.43 347.44 208.09 237.75
  Q 207.30 200.86 206.47 182.53
  Q 206.44 181.89 205.80 181.85
  Z"
/>
<path fill="#ffffff" d="
  M 560.74 1373.19
  C 428.35 1315.59 329.77 1210.79 275.41 1077.87
  C 231.13 969.62 221.52 839.43 270.95 731.36
  Q 271.16 730.88 271.59 730.58
  L 786.38 363.54
  Q 786.81 363.23 787.34 363.25
  C 797.38 363.71 807.77 364.08 817.41 364.98
  C 919.41 374.50 1023.63 407.29 1108.28 466.06
  C 1177.23 513.93 1232.21 579.11 1266.43 656.05
  C 1300.70 733.14 1315.35 816.91 1315.80 901.01
  C 1316.27 988.46 1290.17 1073.44 1246.44 1148.68
  Q 1171.96 1276.80 1047.26 1356.82
  C 991.51 1392.60 930.39 1417.16 864.38 1423.13
  C 836.21 1425.67 807.00 1425.25 777.76 1423.57
  C 702.78 1419.24 629.31 1403.02 560.74 1373.19
  Z
  M 591.9400 844.2600
  A 100.12 71.49 90.0 0 0 663.4300 744.1400
  A 100.12 71.49 90.0 0 0 591.9400 644.0200
  A 100.12 71.49 90.0 0 0 520.4500 744.1400
  A 100.12 71.49 90.0 0 0 591.9400 844.2600
  Z
  M 992.8100 844.2600
  A 100.12 71.50 90.0 0 0 1064.3100 744.1400
  A 100.12 71.50 90.0 0 0 992.8100 644.0200
  A 100.12 71.50 90.0 0 0 921.3100 744.1400
  A 100.12 71.50 90.0 0 0 992.8100 844.2600
  Z
  M 892.53 973.21
  A 100.15 100.15 0.0 0 0 792.38 873.06
  A 100.15 100.15 0.0 0 0 692.23 973.21
  A 100.15 100.15 0.0 0 0 792.38 1073.36
  A 100.15 100.15 0.0 0 0 892.53 973.21
  Z
  M 512.88 1118.22
  Q 545.68 1178.85 596.05 1226.19
  C 646.44 1273.55 709.66 1302.62 779.27 1302.49
  C 888.44 1302.29 975.96 1228.26 1030.64 1139.90
  Q 1036.96 1129.68 1042.49 1119.82
  Q 1078.61 1136.05 1116.08 1127.75
  C 1174.58 1114.79 1212.98 1058.30 1204.13 999.07
  C 1193.81 930.00 1123.78 886.12 1056.99 906.95
  C 1008.41 922.10 975.80 967.61 976.67 1018.28
  C 977.20 1049.64 990.41 1078.38 1013.24 1100.05
  Q 940.84 1146.05 859.75 1164.48
  Q 767.54 1185.43 675.25 1159.03
  Q 602.16 1138.12 540.49 1098.53
  C 581.51 1057.95 587.39 994.98 553.16 948.39
  C 524.11 908.84 473.00 892.31 426.44 907.15
  C 384.14 920.62 353.23 957.62 347.63 1001.54
  C 340.36 1058.47 376.53 1111.97 431.23 1126.62
  Q 472.90 1137.79 512.88 1118.22
  Z"
/>
<ellipse fill="#664300" cx="0.00" cy="0.00" transform="translate(591.94,744.14) rotate(90.0)" rx="100.12" ry="71.49"/>
<ellipse fill="#664300" cx="0.00" cy="0.00" transform="translate(992.81,744.14) rotate(90.0)" rx="100.12" ry="71.50"/>
<circle fill="#bc1331" cx="792.38" cy="973.21" r="100.15"/>
<path fill="#ff7993" d="
  M 540.49 1098.53
  C 535.39 1095.11 528.10 1088.87 522.57 1087.89
  C 513.43 1086.27 505.08 1094.50 506.14 1103.51
  Q 506.50 1106.64 508.91 1111.09
  Q 510.82 1114.63 512.88 1118.22
  Q 472.90 1137.79 431.23 1126.62
  C 376.53 1111.97 340.36 1058.47 347.63 1001.54
  C 353.23 957.62 384.14 920.62 426.44 907.15
  C 473.00 892.31 524.11 908.84 553.16 948.39
  C 587.39 994.98 581.51 1057.95 540.49 1098.53
  Z"
/>
<path fill="#ff7993" d="
  M 1042.49 1119.82
  Q 1045.50 1114.22 1048.16 1109.20
  C 1054.00 1098.20 1045.21 1085.66 1032.88 1088.12
  Q 1029.95 1088.71 1026.11 1091.40
  Q 1019.66 1095.92 1013.24 1100.05
  C 990.41 1078.38 977.20 1049.64 976.67 1018.28
  C 975.80 967.61 1008.41 922.10 1056.99 906.95
  C 1123.78 886.12 1193.81 930.00 1204.13 999.07
  C 1212.98 1058.30 1174.58 1114.79 1116.08 1127.75
  Q 1078.61 1136.05 1042.49 1119.82
  Z"
/>
<path fill="#db2b45" d="
  M 540.49 1098.53
  Q 602.16 1138.12 675.25 1159.03
  Q 767.54 1185.43 859.75 1164.48
  Q 940.84 1146.05 1013.24 1100.05
  Q 1019.66 1095.92 1026.11 1091.40
  Q 1029.95 1088.71 1032.88 1088.12
  C 1045.21 1085.66 1054.00 1098.20 1048.16 1109.20
  Q 1045.50 1114.22 1042.49 1119.82
  Q 1036.96 1129.68 1030.64 1139.90
  C 975.96 1228.26 888.44 1302.29 779.27 1302.49
  C 709.66 1302.62 646.44 1273.55 596.05 1226.19
  Q 545.68 1178.85 512.88 1118.22
  Q 510.82 1114.63 508.91 1111.09
  Q 506.50 1106.64 506.14 1103.51
  C 505.08 1094.50 513.43 1086.27 522.57 1087.89
  C 528.10 1088.87 535.39 1095.11 540.49 1098.53
  Z"
/>
</svg>
